<svg id="b6c20799-90f8-46ec-b3d3-7f9b914cad37" data-name="Capa 1" xmlns="http://www.w3.org/2000/svg" viewBox="0 0 335.23 335.23"><title>imagen 1</title><path d="M58,154.71a7.09,7.09,0,0,1-4.78,1.18c-7.19-.73-6-10-12.59-16.12-2.86,9.77-4.15,20.39-1.23,27.14C32.8,169.49,27.75,163.7,29,156.29a89.51,89.51,0,0,1,5.84-19.9c-2.41-.67-4,.23-3.93,1.35a4.62,4.62,0,0,1-.23.73,3,3,0,0,1-3.42,1.75,2.08,2.08,0,0,1-1.18-3c1.63-3.59,6.18-5.28,10.39-4.16,4.33-8.14,12-18.54,22.37-19.21h.33c2.31,0,5,.73,4.16,5.62,0,0-5.45,31.07-5.51,31.18C57.25,154.26,58,154.71,58,154.71Zm-7.48-3.87v-.23c.06-.11,5.79-32.81,5.79-32.81.17-1,0-1.35-.45-1.41-4.27,0-10.06,8.94-14.1,19.84C47.81,141.62,48.31,147.75,50.5,150.84Z" transform="translate(0.5 0.5)" style="fill:#333b81"/><path d="M79.27,146.51c-2.58,8.32-7.59,9.44-10.34,9.44-3.09,0-5.56-1.86-5.73-6.13a22.38,22.38,0,0,1,.22-3.09L66.23,131h-2l.28-1.8h2l.67-3.65c.17-1.07-.06-1.46-.67-1.46a.4.4,0,0,1,0,.34,1.27,1.27,0,0,1-1.24,1.06.93.93,0,0,1-.9-1.06c.39-2,3.43-2.76,5.68-2.76s5,.68,4.15,5.62l-.33,1.91h2.47l-.28,1.8H73.6l-3,17c-.5,2.92.84,3.42,2.25,3.42,2,0,3.88-2.41,4.55-4.94Z" transform="translate(0.5 0.5)" style="fill:#333b81"/><path d="M101.24,146.51c-1.63,6.29-8.71,10.62-15.79,9.27-5.56-1.07-10-5.84-8.09-13.15s7.08-13.43,12.92-13.43h.23c4.38,0,7,3.94,5.56,8.21-3,8.26-11.86,8.31-11.86,8.31-.67,9.16,12.2,8.6,15.12.79ZM90.62,132.8c-1.91-.06-5.62,4.38-6,10.62,4-.68,6.58-2.64,7.76-5.56C93.43,135.38,92.19,132.91,90.62,132.8Z" transform="translate(0.5 0.5)" style="fill:#333b81"/><path d="M128.6,146.51C126,154.83,121,156,118.26,156c-3.09,0-5.67-1.8-5.73-6.13,0-5.67,3.66-16.63-.33-16.63-1.3,0-3.6.9-3.94,2.87-.67,3.71-2.53,14.44-2.58,14.55-.62,3.71.17,4.1.17,4.1-3.15,2.14-8.54,2-7.53-4.1,0-.06,3.09-17.53,3.09-17.53.22-1.07,0-1.46-.62-1.46V132A1.37,1.37,0,0,1,99.5,133a.87.87,0,0,1-.85-1.06c.34-2,3.38-2.76,5.62-2.76,1.8,0,3.82.4,4.33,2.81a9.79,9.79,0,0,1,6.52-2.81c5.84,0,7.3,4.5,5.73,13.38-.62,3.54-.84,4.88-.9,5.39l-.06.06c-.5,2.92.79,3.42,2.25,3.42,2,0,3.88-2.41,4.55-4.94Z" transform="translate(0.5 0.5)" style="fill:#333b81"/><path d="M148.38,146.4c-1.52,4.49-7,10.45-13.71,9.49-5.73-.78-9.83-5.95-8-13.31s7.14-13.43,13-13.43c2.75,0,6,1.34,5.67,4.72a.22.22,0,0,1-.05.11,3.25,3.25,0,0,1-3.15,2.7A2.2,2.2,0,0,1,140,134a4.08,4.08,0,0,1,.45-1.07c-4.05-1.35-11.52,17.42-2.36,19.05,4.38.79,7.75-3.2,8.37-5.56Z" transform="translate(0.5 0.5)" style="fill:#333b81"/><path d="M162.15,146.51c-2.59,8.32-7.59,9.44-10.34,9.44-3.09,0-5.62-1.86-5.73-6.13a20.92,20.92,0,0,1,.22-3.09l2.19-12.19c1.07-6.12,6.52-6.24,9-4.1,0,0-1,.39-1.63,4.1,0,.34-2.3,12.92-2.41,13.49-.51,2.92.78,3.42,2.24,3.42,2,0,3.88-2.41,4.56-4.94Zm-8.66-19.72a3,3,0,0,1-3-3.66,4.6,4.6,0,0,1,4.33-3.65,2.93,2.93,0,0,1,3,3.65A4.48,4.48,0,0,1,153.49,126.79Z" transform="translate(0.5 0.5)" style="fill:#333b81"/><path d="M185.46,141.62c0,8.43-4.21,14.89-12.81,14.89s-12.3-5.39-12.3-14.27c0-8.49,4.21-15,12.81-15S185.46,132.69,185.46,141.62Zm-18.2.06c0,5.56,1.12,10.11,6,10.11,4.32,0,5.33-4.21,5.33-9.61,0-5.62-1.12-10.17-6-10.17C168.27,132,167.26,136.23,167.26,141.68Zm2.36-18.88,9.55-10.62,4.27,4a49.49,49.49,0,0,1-11.07,9.55Z" transform="translate(0.5 0.5)" style="fill:#333b81"/><path d="M218.62,146.51C216,154.83,211,156,208.28,156c-3.09,0-5.68-1.8-5.73-6.13,0-5.67,3.65-16.63-.34-16.63-1.29,0-3.6.9-3.94,2.87-.67,3.71-2.52,14.44-2.58,14.55-.62,3.71.17,4.1.17,4.1-3.15,2.14-8.54,2-7.53-4.1,0-.06,3.09-17.53,3.09-17.53.22-1.07,0-1.46-.62-1.46V132a1.37,1.37,0,0,1-1.29,1.06.86.86,0,0,1-.84-1.06c.33-2,3.37-2.76,5.61-2.76,1.8,0,3.83.4,4.33,2.81a9.79,9.79,0,0,1,6.52-2.81c5.84,0,7.3,4.5,5.73,13.38-.62,3.54-.84,4.88-.9,5.39l-.05.06c-.51,2.92.78,3.42,2.24,3.42,2,0,3.88-2.41,4.56-4.94Z" transform="translate(0.5 0.5)" style="fill:#333b81"/><path d="M264.46,146.45c-3.37,10.06-13,9.5-15.73,9.5-3.31.17-8-1.41-7.08-6.86.51-2.86,2-3.87,3.32-4.15a107.73,107.73,0,0,0,6.35-12.2,5.35,5.35,0,0,1,8.48-2.3s-1.18.39-1.63,4.1c-.39,3.09,2.36,7.47-.39,14.72a10.5,10.5,0,0,1-1.91,3.26,8.22,8.22,0,0,0,6.68-6.07Zm-13.43,1c.68-3.93-.22-6-.44-8.93-1.41,3-2.7,5.34-3.6,7a2.2,2.2,0,0,1,.5,1.91,2.93,2.93,0,0,1-2.36,2.31c0,1.29,1.35,1.68,2.36,1.68S250.53,150.33,251,147.46Z" transform="translate(0.5 0.5)" style="fill:#333b81"/><path d="M278.23,146.51c-2.58,8.32-7.59,9.44-10.34,9.44-3.09,0-5.62-1.86-5.73-6.13a22.38,22.38,0,0,1,.22-3.09s2.14-11.91,2.2-12.19c1.06-6.12,6.51-6.24,9-4.1,0,0-1,.39-1.63,4.1-.06.34-2.31,12.92-2.42,13.49-.51,2.92.79,3.42,2.25,3.42,2,0,3.88-2.41,4.55-4.94Zm-8.65-19.72a3,3,0,0,1-3-3.66,4.61,4.61,0,0,1,4.33-3.65,2.94,2.94,0,0,1,3,3.65A4.5,4.5,0,0,1,269.58,126.79Z" transform="translate(0.5 0.5)" style="fill:#333b81"/><path d="M305.65,146.51c-2.59,8.32-7.59,9.44-10.34,9.44-3.09,0-5.67-1.8-5.73-6.13,0-5.67,3.65-16.63-.34-16.63-1.29,0-3.59.9-3.93,2.87-.68,3.71-2.53,14.44-2.59,14.55-.61,3.71.17,4.1.17,4.1-3.14,2.14-8.54,2-7.53-4.1,0-.06,3.09-17.53,3.09-17.53.23-1.07,0-1.46-.61-1.46V132a1.39,1.39,0,0,1-1.3,1.06.86.86,0,0,1-.84-1.06c.34-2,3.37-2.76,5.62-2.76,1.8,0,3.82.4,4.33,2.81a9.78,9.78,0,0,1,6.51-2.81c5.85,0,7.31,4.5,5.74,13.38-.62,3.54-.85,4.88-.9,5.39l-.06.06c-.51,2.92.79,3.42,2.25,3.42,2,0,3.87-2.41,4.55-4.94Z" transform="translate(0.5 0.5)" style="fill:#333b81"/><path d="M79.44,173.82c-.22,3.93-2.47,5.79-5.39,6-3.77.22-6.92-1.46-10.29-2.53-1.74,9.61-5.9,33.21-5.9,33.26-.61,3.71.12,4.1.12,4.1-3.09,2.14-8.55,2-7.48-4.1,0,0,4.27-24.1,6-34-6,.56-7,4.49-7.13,5.67-.06.79.95.9,1.35,1.52a1.26,1.26,0,0,1,.28.62,2.76,2.76,0,0,1-1.8,3.09,2,2,0,0,1-2.81-1.29c-1.63-4.22,2.42-12.37,14.61-12.31,4.61,0,7.64,1,10.28,1.24C74.66,175.45,77.75,175.06,79.44,173.82Z" transform="translate(0.5 0.5)" style="fill:#333b81"/><path d="M94,206.41c-2.58,8.32-7.58,9.44-10.34,9.44a5.19,5.19,0,0,1-5.39-4,9,9,0,0,1-7,4c-5.9,0-7.87-6.07-6.13-13.37S72.19,189.1,78,189.1a3.62,3.62,0,0,1,3.38,2.42,5.35,5.35,0,0,1,7.92-1.18s-1,.39-1.63,4.1c-.06.34-2.3,12.93-2.42,13.49-.5,2.92.79,3.43,2.25,3.43,2,0,3.88-2.42,4.55-5Zm-15.67-.56c.33-2,1.29-7.25,1.74-9.89.34-2,0-2.87-1.18-2.87-2.76,0-5,4.44-6.41,9.39s-1.18,8.93,1.58,9S78,207.53,78.32,205.85Z" transform="translate(0.5 0.5)" style="fill:#333b81"/><path d="M121.24,206.41c-2.58,8.32-7.58,9.44-10.34,9.44-3.09,0-5.67-1.8-5.73-6.12,0-5.68,3.66-16.64-.33-16.64-1.3,0-3.6.9-3.94,2.87-.67,3.71-2.53,14.44-2.58,14.55-.62,3.71.17,4.1.17,4.1-3.15,2.14-8.54,2-7.53-4.1,0,0,3.09-17.53,3.09-17.53.22-1.07,0-1.46-.62-1.46v.34a1.39,1.39,0,0,1-1.29,1.07.87.87,0,0,1-.85-1.07c.34-2,3.38-2.76,5.62-2.76,1.8,0,3.82.4,4.33,2.81a9.83,9.83,0,0,1,6.52-2.81c5.84,0,7.3,4.5,5.73,13.38-.62,3.54-.84,4.89-.9,5.39l-.06.06c-.5,2.92.79,3.43,2.25,3.43,2,0,3.88-2.42,4.55-5Z" transform="translate(0.5 0.5)" style="fill:#333b81"/><path d="M134.9,206.41c-2.59,8.32-7.59,9.44-10.34,9.44-3.09,0-5.57-1.85-5.73-6.12a20.74,20.74,0,0,1,.22-3.09l2.81-15.74h-2l.28-1.8h2l.68-3.65c.16-1.07-.06-1.46-.68-1.46a.34.34,0,0,1,0,.34,1.28,1.28,0,0,1-1.24,1.07.93.93,0,0,1-.89-1.07c.39-2,3.42-2.76,5.67-2.76s5.06.68,4.16,5.62l-.34,1.91H132l-.28,1.8h-2.47l-3,17c-.51,2.92.84,3.43,2.24,3.43,2,0,3.88-2.42,4.56-5Z" transform="translate(0.5 0.5)" style="fill:#333b81"/><path d="M162.09,206.41c-2.58,8.32-7.58,9.44-10.34,9.44a5.18,5.18,0,0,1-5.39-4,9.05,9.05,0,0,1-7,4c-5.9,0-7.86-6.07-6.12-13.37s7.08-13.38,12.92-13.38a3.6,3.6,0,0,1,3.37,2.42,5.36,5.36,0,0,1,7.93-1.18s-1,.39-1.63,4.1c-.06.34-2.31,12.93-2.42,13.49-.5,2.92.79,3.43,2.25,3.43,2,0,3.88-2.42,4.55-5Zm-15.68-.56c.34-2,1.3-7.25,1.75-9.89.33-2,.05-2.87-1.18-2.87-2.76,0-5,4.44-6.41,9.39s-1.18,8.93,1.57,9S146.13,207.53,146.41,205.85Z" transform="translate(0.5 0.5)" style="fill:#333b81"/><path d="M217.89,194c-1,4.5-6.19,5.62-9.16,3.49-2.48,8.2-9,18.37-15.4,18.37-3.09,0-5.62-1.85-5.73-6.12a22.18,22.18,0,0,1,.22-3.09l2.19-12.2c1.07-6.12,6.52-6.24,9-4.1,0,0-1,.39-1.63,4.1-.06.34-2.31,12.93-2.42,13.49-.51,2.92.79,3.43,2.25,3.43,3.09,0,7.64-9.33,9.44-15-3-2.3-3.26-9.16.28-9,2.58.11,3.2,2.92,2.64,6.75,1.24,3.31,6.35,2.92,7.3-.79Z" transform="translate(0.5 0.5)" style="fill:#333b81"/><path d="M241.09,206.41c-2.64,8.32-7.58,9.44-10.39,9.44a5.26,5.26,0,0,1-5.45-4.27,9.44,9.44,0,0,1-7.87,4.27c-3.09,0-5.62-1.85-5.73-6.12a20.74,20.74,0,0,1,.22-3.09l2.19-12.2c1.07-6.12,6.52-6.24,9-4.1,0,0-1,.39-1.63,4.1,0,.34-2.3,12.93-2.41,13.49-.51,2.92.78,3.43,2.25,3.43s2.86-1.3,3.76-3c.06-.56.17-1.18.23-1.74,0,0,2.13-11.92,2.19-12.2,1.06-6.12,6.51-6.24,8.93-4.1,0,0-1,.39-1.63,4.1-.06.34-2.3,12.93-2.41,13.49-.51,2.92.84,3.43,2.24,3.43,2,0,3.94-2.42,4.61-5Z" transform="translate(0.5 0.5)" style="fill:#333b81"/><path d="M263.23,206.41c-1.63,6.29-8.71,10.62-15.79,9.27-5.56-1.07-9.95-5.84-8.09-13.15s7.08-13.43,12.92-13.43h.23c4.38,0,7,3.94,5.56,8.21-3,8.26-11.86,8.31-11.86,8.31-.67,9.16,12.2,8.6,15.12.79ZM252.61,192.7c-1.91-.06-5.62,4.38-6,10.62,4-.67,6.58-2.64,7.76-5.56C255.42,195.28,254.18,192.81,252.61,192.7Z" transform="translate(0.5 0.5)" style="fill:#333b81"/><path d="M276.83,206.41c-2.59,8.32-7.59,9.44-10.34,9.44-3.09,0-5.57-1.85-5.74-6.12a20.85,20.85,0,0,1,.23-3.09l4.66-26.19c.17-1.07-.05-1.46-.67-1.46.06.11,0,.22,0,.34a1.31,1.31,0,0,1-1.24,1.06.9.9,0,0,1-.9-1.06c.34-2,3.43-2.76,5.68-2.76s5.06.68,4.16,5.62l-4.55,25.74c-.51,2.92.84,3.43,2.24,3.43,2,0,3.88-2.42,4.55-5Z" transform="translate(0.5 0.5)" style="fill:#333b81"/><path d="M290.48,206.41c-2.59,8.32-7.59,9.44-10.34,9.44-3.09,0-5.56-1.85-5.73-6.12a20.74,20.74,0,0,1,.22-3.09l2.81-15.74h-2l.28-1.8h2l.68-3.65c.17-1.07-.06-1.46-.68-1.46a.34.34,0,0,1,0,.34,1.26,1.26,0,0,1-1.23,1.07.94.94,0,0,1-.9-1.07c.39-2,3.43-2.76,5.67-2.76s5.06.68,4.16,5.62l-.34,1.91h2.48l-.28,1.8H284.8l-3,17c-.51,2.92.84,3.43,2.25,3.43,2,0,3.87-2.42,4.55-5Z" transform="translate(0.5 0.5)" style="fill:#333b81"/><path d="M317.67,206.41c-2.58,8.32-7.58,9.44-10.33,9.44a5.19,5.19,0,0,1-5.4-4,9,9,0,0,1-7,4c-5.9,0-7.87-6.07-6.13-13.37s7.08-13.38,12.93-13.38a3.61,3.61,0,0,1,3.37,2.42,5.35,5.35,0,0,1,7.92-1.18s-1,.39-1.63,4.1c-.06.34-2.3,12.93-2.42,13.49-.5,2.92.79,3.43,2.25,3.43,2,0,3.88-2.42,4.55-5ZM302,205.85c.33-2,1.29-7.25,1.74-9.89.34-2,.05-2.87-1.18-2.87-2.75,0-5,4.44-6.41,9.39s-1.18,8.93,1.58,9S301.72,207.53,302,205.85Z" transform="translate(0.5 0.5)" style="fill:#333b81"/><circle cx="167.62" cy="167.62" r="167.12" style="fill:none;stroke:#1d1d1b;stroke-miterlimit:10;opacity:0.35000000000000003"/></svg>