<svg id="f2600457-d5d8-4810-8693-1ee78a8252d3" data-name="Capa 1" xmlns="http://www.w3.org/2000/svg" viewBox="0 0 335.23 335.23"><title>imagen 2</title><path d="M170.5,163.6l.46-.18.32-.19a1.14,1.14,0,0,1,.24-.22.46.46,0,0,1,.25-.08l.69-.29.37-.35a1.37,1.37,0,0,0,.26-.08.42.42,0,0,0,.15-.11,1.49,1.49,0,0,1,.24-.18.63.63,0,0,1,.22,0h.11l.09,0a.29.29,0,0,1,.11.11.19.19,0,0,1,0,.1,2.54,2.54,0,0,1-.11.34,1.62,1.62,0,0,1-.06.17l-.35.47-.49.42a.42.42,0,0,1-.13.29.8.8,0,0,1-.35.11.87.87,0,0,1-.25.41,1,1,0,0,1-.5.21l-.12.15-.25.11a.79.79,0,0,1-.25.17.9.9,0,0,1-.28.08l-.06,0a2.17,2.17,0,0,0-.41.3,1.93,1.93,0,0,0-.36.06,1.66,1.66,0,0,0-.32.13l-.22.05-.27,0-.18,0h-.21a2.52,2.52,0,0,1-.67-.11,4.82,4.82,0,0,1-.87-.39l-.08-.12a2.12,2.12,0,0,1-.24-.2,2,2,0,0,1-.22-.27l-.06-.19-.09-.08a2.73,2.73,0,0,1-.21-.3c-.05-.1-.11-.2-.16-.31l0-.07a.35.35,0,0,0,0-.12.27.27,0,0,0,0-.16.8.8,0,0,0-.16-.13,2,2,0,0,0-.08-.36.85.85,0,0,0-.13-.25l-.06-.34-.16-.3a3.19,3.19,0,0,0-.28.32l-.16.2a1,1,0,0,0-.24.2,1.83,1.83,0,0,0-.18.29.67.67,0,0,0-.28.2.55.55,0,0,0-.13.3l-.09.19s-.13.15-.28.3l-.38.4-.37.19-.15.28,0,.06a13,13,0,0,1-1.19,1.28l-.47.28-.31.27a3.17,3.17,0,0,0-.4.29,2.57,2.57,0,0,0-.33.33l-.36.13h-.39l-.22,0h-.25l-.2,0-.12,0a.58.58,0,0,1-.33-.13.8.8,0,0,1-.23-.35l0-.15-.05-.08,0-.16-.06-.11a3.76,3.76,0,0,1,.13-1,9.66,9.66,0,0,1,.41-1.15l.12-.47a5.85,5.85,0,0,0-.48.34c-.15.11-.31.23-.46.36l-.33.13a.51.51,0,0,1-.2.21,1.26,1.26,0,0,1-.36.12l-.11.08a4.26,4.26,0,0,1-1.23.71.28.28,0,0,1-.13,0,.52.52,0,0,1-.13-.17l.06-.21a.69.69,0,0,1,.14-.2.37.37,0,0,1,.18-.08l0-.31a.74.74,0,0,1,.16-.2,2.72,2.72,0,0,1,.3-.19,3.26,3.26,0,0,1,.31-.33,3.73,3.73,0,0,1,.38-.28.89.89,0,0,1,.25-.4.88.88,0,0,1,.38-.16l.12-.27.24-.09a.44.44,0,0,1,.13-.21.66.66,0,0,1,.28-.15l.12,0a.11.11,0,0,0,.1,0,.48.48,0,0,0,.07-.16c.17-.16.34-.31.52-.45l.57-.45a1.43,1.43,0,0,0,.46-.18.28.28,0,0,0,.12-.23v-.07c.51-.44.9-.78,1.16-1l.16-.17.45-.33.51-.45c.19-.19.44-.42.75-.68s.71-.58,1.18-.94l.51-.37.76-.54a4.38,4.38,0,0,1,.44-.16.85.85,0,0,1,.25,0,4.53,4.53,0,0,0,.21-.59c.07-.2.13-.44.19-.69l.15-.16c.18-.59.39-1.17.61-1.72s.48-1.1.74-1.63l.22-.16v-.11a.87.87,0,0,1,.08-.37.78.78,0,0,1,.22-.3s0-.05.06-.06a1.42,1.42,0,0,0,.25-.4l.26-.27.09-.38a3.74,3.74,0,0,1,.34-.55,5.82,5.82,0,0,1,.48-.54l.27-.34.29-.16.14.08.14-.11.34.05.21.06.12.22-.09.15.12.13v.11a3.15,3.15,0,0,1-.2.9.5.5,0,0,1,0,.13l0,.28a3,3,0,0,1-.16.59,1.8,1.8,0,0,1-.27.47l0,.21a2.7,2.7,0,0,1-.14.56,2.75,2.75,0,0,1-.23.49l-.14.12,0,.13-.06.16,0,.19a.7.7,0,0,0-.2.23.5.5,0,0,0-.07.27.69.69,0,0,0,0,.13.41.41,0,0,1,0,.1,3.32,3.32,0,0,1-.2.66,5.28,5.28,0,0,1-.4.7.8.8,0,0,0-.16.15.31.31,0,0,0-.06.13.12.12,0,0,0,0,.07.31.31,0,0,1,0,.08l-.18.38a3.49,3.49,0,0,1-.25.45l-.19,0-.06.06a.46.46,0,0,1,0,.09s0,.09.06.16a3.81,3.81,0,0,1-.25.62c-.12.24-.25.48-.4.74l-.16.32a3.07,3.07,0,0,0-.13.5,2.81,2.81,0,0,0,0,.5v.2l-.09.3.09.31a8.51,8.51,0,0,0,.06,1c0,.33.11.68.2,1a1,1,0,0,1-.06.15.16.16,0,0,0,.05.11.5.5,0,0,0,.14.1l.21.4a1.24,1.24,0,0,1,.18.22,1.69,1.69,0,0,1,.13.27l.3.15a2.93,2.93,0,0,0,.45.15l.07,0,.4,0a.41.41,0,0,0,.16,0Zm-8,.13.22-.34q.34-.31.66-.66c.21-.24.42-.5.64-.78l.2-.08.18-.31a8.35,8.35,0,0,0,.77-1.08c.29-.45.5-.75.62-.9,0-.4.05-.7.08-.9a3,3,0,0,1,.11-.54l-.31,0-.12.26-.18.21L165,159l-.34.35-.15.11-.24.11,0,.19s-.1.13-.2.26c-.38.46-.74.88-1.06,1.25a1.28,1.28,0,0,0-.28.29,1.19,1.19,0,0,0-.15.35,1.16,1.16,0,0,0-.26.28,1.14,1.14,0,0,0-.18.32,1,1,0,0,0-.24.22,1.59,1.59,0,0,0-.19.32.81.81,0,0,1-.1.3.71.71,0,0,1-.22.24,1.2,1.2,0,0,1-.13.25,2.93,2.93,0,0,1-.21.35s-.06.11-.1.19a1,1,0,0,0-.17.53.61.61,0,0,0,.14.07l.1,0a.37.37,0,0,0,.2-.1,3.12,3.12,0,0,0,.26-.3l.25-.16.29-.34c.19-.25.34-.37.47-.37Z" transform="translate(0.5 0.5)" style="fill:#2a3f8f"/><path d="M172.21,164.6l0-.26-.38.26-.22.14-.3.22-.38.2-.22.14-.18.13-.31.15a.52.52,0,0,1-.21.23,1.06,1.06,0,0,1-.45.07c-.1,0-.16,0-.18,0a.44.44,0,0,1-.06-.19.56.56,0,0,1,.11-.28.64.64,0,0,1,.25-.17v-.29l.29-.27.34-.37.22-.28.21-.08a.81.81,0,0,1,.23-.31,1.32,1.32,0,0,1,.4-.22l.09-.2.4-.21.34-.26a.35.35,0,0,0,.07-.09.53.53,0,0,0,0-.16v-.1l.15-.26-.06-.17.09-.23a5.05,5.05,0,0,1,.23-.81,2.6,2.6,0,0,1,.31-.57l.21-.11-.06-.17a5.8,5.8,0,0,1,.75-1,16.26,16.26,0,0,1,1.42-1.29h.16l.12-.12.14,0,.09-.19a3.14,3.14,0,0,1,.76-.43,2.47,2.47,0,0,1,.79-.13h.25l.16,0,.13.06.61.17.2.25.09,0a3.86,3.86,0,0,1,.14.39.84.84,0,0,1,0,.23.49.49,0,0,1,0,.13.13.13,0,0,1,0,.08l.09.21,0,.3-.12.36-.2.28-.06.31a3.2,3.2,0,0,1-.29.38,5.93,5.93,0,0,1-.44.45l-.1.18a8.24,8.24,0,0,1-.84.81c-.32.28-.73.6-1.24,1l-.26.08-.09.16-.51.31-.23.25-.08.08a.16.16,0,0,0,0,.08.77.77,0,0,0,.05.29,2,2,0,0,0,.17.39l.14.17.09.27a3.1,3.1,0,0,0,.71.38,2,2,0,0,0,.68.12,1.44,1.44,0,0,0,.44-.07,3.34,3.34,0,0,0,.62-.26l.2-.05.52-.31.4,0,.09-.21.36-.3.56-.46.26-.11L180,163a3,3,0,0,1,.4-.21l.44-.16a1.1,1.1,0,0,1,.29-.28,1.15,1.15,0,0,1,.42-.16l.23-.22.23-.06.16,0a.47.47,0,0,1,.24,0,.22.22,0,0,1,.07.17.49.49,0,0,1,0,.19.69.69,0,0,1-.1.17l-.07.17a2.24,2.24,0,0,1-.31.37c-.13.13-.31.29-.53.48v.08a.24.24,0,0,1-.09.22.84.84,0,0,1-.34.09,2.72,2.72,0,0,1-.84.83,2.78,2.78,0,0,0-.32.25l-.26.19-.16.06-.23.2-.33.29-.17.21-.37.22a4.88,4.88,0,0,1-1.08.64,2.69,2.69,0,0,1-1,.25h-.15l-.33-.05-.15.08h-.43a3.42,3.42,0,0,1-.91-.1,1,1,0,0,1-.53-.32l-.22,0-.36-.3L173,166l-.17-.15a2.36,2.36,0,0,1-.24-.34,2.85,2.85,0,0,1-.17-.39Zm4-4.19.24-.16a.83.83,0,0,1,.12-.33.8.8,0,0,0,.13-.44,1,1,0,0,0,0-.22s0,0-.11,0h-.05l-.24.13-.57.48-.55.5-.49.66c-.05.1-.1.2-.14.3a.78.78,0,0,0-.06.27l0,0h.13l.13-.07.13,0H175a.13.13,0,0,0,.08,0,.49.49,0,0,0,.13-.11l.15-.25.25-.23Z" transform="translate(0.5 0.5)" style="fill:#2a3f8f"/><path d="M196.26,152.09c-.08.25-.17.52-.26.82s-.17.63-.25,1a1.29,1.29,0,0,1,.29,0l.25.08a.2.2,0,0,1,.14,0,.11.11,0,0,1,0,.1v.09a7.74,7.74,0,0,0,.07.83c0,.27.05.42.05.42a.69.69,0,0,1-.16.53,1,1,0,0,1-.62.14l-.78,0-.23.55c-.07.17-.15.33-.23.49l.05.13a.29.29,0,0,1,0,.11c0,.06,0,.12-.12.21l-.09.09c-.41,1.5-.72,2.71-.94,3.63s-.38,1.73-.49,2.42v.1c0,.06,0,.11,0,.14a.31.31,0,0,0,0,.08v0l0,0c-.05.3-.1.58-.14.85a4.51,4.51,0,0,0-.06.61.27.27,0,0,0,.1.19.29.29,0,0,0,.16.09.94.94,0,0,0,.4-.2l.21-.14h.14l.17,0h.08l0-.14a.23.23,0,0,1,0-.07.15.15,0,0,1,0-.07l.06-.08.57-.45c.2-.16.44-.33.71-.52a.84.84,0,0,1,.07-.18.46.46,0,0,1,.18-.13,2.7,2.7,0,0,0,.39-.27c.12-.1.25-.23.39-.37l.12,0,.09-.16a2.92,2.92,0,0,1,.46-.26l.35-.14.15-.1a2.22,2.22,0,0,1,.51-.37l.19-.08a2,2,0,0,1,.31-.17.86.86,0,0,1,.27,0,.42.42,0,0,1,.2,0c.06,0,.09.07.09.11a.5.5,0,0,1,0,.16l-.12.21-.07.2q-.19.22-.42.45c-.15.15-.31.29-.46.42a.49.49,0,0,1-.11.28.52.52,0,0,1-.29.06l-.22.34-.47.45c-.21.21-.38.37-.52.49a1.18,1.18,0,0,1-.34.23.22.22,0,0,0-.13,0s-.05.07-.07.15a7,7,0,0,1-.65.75,2.43,2.43,0,0,1-.56.4.34.34,0,0,0-.2.07.54.54,0,0,0-.11.24,4.94,4.94,0,0,1-.8.78,6.38,6.38,0,0,1-1.06.66h-.07a.59.59,0,0,1-.23.14.65.65,0,0,1-.27,0h-.11l-.11,0,0,0,0,0-.07,0-.12,0-.11,0-.16-.12a1.17,1.17,0,0,1-.76-.4,2.52,2.52,0,0,1-.19-1.22v-.17c0-.06,0-.12,0-.2v-.1a.59.59,0,0,0,0-.21.08.08,0,0,1,0,0v-.45a2.56,2.56,0,0,1,0-.47,2.32,2.32,0,0,1,.13-.47l.09-.17a.36.36,0,0,1-.07-.1.37.37,0,0,1,0-.12v-.11c.11-.51.22-1,.32-1.32a7.28,7.28,0,0,1,.32-.94,2.73,2.73,0,0,0,.25-.25.17.17,0,0,0,.06-.11.16.16,0,0,0,0-.08.33.33,0,0,0-.08-.11l.11-.43-.2.29a1.1,1.1,0,0,0-.25.2,2.87,2.87,0,0,0-.34.53,1.29,1.29,0,0,1-.3.23.54.54,0,0,0-.28.37l-.36.32a.94.94,0,0,1-.19.27.32.32,0,0,1-.21.08.37.37,0,0,0-.23.06.29.29,0,0,0-.09.21l-.09.23-.37.25a.92.92,0,0,0-.23.18.68.68,0,0,0-.13.27l-.17.1c-.19.1-.34.17-.45.24a1.26,1.26,0,0,0-.25.19.71.71,0,0,0-.25.11,2.29,2.29,0,0,0-.27.17,3.19,3.19,0,0,0-.38.2,1.42,1.42,0,0,0-.22.18l-.28.21-.15,0h-.15a.46.46,0,0,1-.28-.06.28.28,0,0,1-.07-.22v-.09a.63.63,0,0,1,.15-.21.41.41,0,0,1,.23-.11v-.37c.16-.12.29-.22.4-.32a1.59,1.59,0,0,0,.26-.26l0-.19.48-.24a1.46,1.46,0,0,1,.21-.28,2.13,2.13,0,0,1,.37-.25l.17-.24.06,0a.69.69,0,0,0,.28-.23h.05a1.06,1.06,0,0,1,.3-.07v-.22l.28-.31.9-1a4.68,4.68,0,0,1,.84-1.2l.14-.15a.43.43,0,0,0,.19-.06.15.15,0,0,0,.07-.13.31.31,0,0,0,0-.08l0-.08c.15-.19.28-.37.4-.55a2.85,2.85,0,0,0,.29-.54h0c.15,0,.33-.23.53-.67a9.62,9.62,0,0,1,.62-1.14,1.25,1.25,0,0,0,.23-.27,2.77,2.77,0,0,0,.2-.34l-.4-.06-.41.13a2,2,0,0,1-.31,0l-.34,0-.35,0-.09,0-.09,0-.07,0h-.25l-.11,0h-1.62a.42.42,0,0,1-.16-.11.78.78,0,0,1-.15-.16.25.25,0,0,1-.07.12.78.78,0,0,1-.16.15l-.07,0H188a.71.71,0,0,1-.28-.06,1.89,1.89,0,0,1-.34-.18.58.58,0,0,1-.3-.09s-.07-.15-.07-.34a4.15,4.15,0,0,1,0-.42,5.27,5.27,0,0,0,.05-.64s0-.09,0-.18a1.79,1.79,0,0,1,0-.21h.14l.08,0,.12-.08.35-.05.55-.06.49,0,.51.06.72,0h.44l.24,0,.39,0,0,0h.09l.08,0,.15-.06.25,0h.36l.25,0,.41.06.15.11a2.6,2.6,0,0,0,.39,0l.36-.08.43-.9a3.53,3.53,0,0,0,.23-.59,2.37,2.37,0,0,1,.23-.3,1.1,1.1,0,0,1,.32-.2v-.05c0-.11.08-.21.25-.3a1.2,1.2,0,0,1,.57-.14.41.41,0,0,1,.27.07.49.49,0,0,1,.17.26,2,2,0,0,1,.13.22A.55.55,0,0,1,196.26,152.09Z" transform="translate(0.5 0.5)" style="fill:#2a3f8f"/><path d="M197.44,164a12.07,12.07,0,0,1-1.68,1.31,4,4,0,0,1-1.16.62.32.32,0,0,1-.21-.08.28.28,0,0,1-.08-.21.39.39,0,0,1,.08-.25.83.83,0,0,1,.3-.22v-.25c.41-.45.79-.83,1.13-1.15s.55-.47.62-.47a1.38,1.38,0,0,0,.43-.46l.12-.18.28-.19.17-.2.15-.08.09-.22.69-.67.63-.53.55-.66a6.63,6.63,0,0,1,.54-.52,6.14,6.14,0,0,1,.64-.46L201,159l.08-.2a4.86,4.86,0,0,1,1.06-.85,2,2,0,0,1,.87-.17,1.4,1.4,0,0,1,.49.08c.13.06.2.12.2.19a2,2,0,0,1-.27.4c-.17.24-.33.46-.45.66l.6-.31.38-.14.22-.08a.88.88,0,0,1,.24,0h.18l.13,0,.29,0a2.88,2.88,0,0,1,1.71.76,2.06,2.06,0,0,1,.65,1.56.78.78,0,0,1,0,.13.89.89,0,0,0,0,.15l-.16.61-.06.22-.18.45-.31.64-.2.24-.27.21-.09.27a1.72,1.72,0,0,1-.41.52c-.27.3-.63.65-1.07,1.07l-.24.35-.25.15-.23.06-.3.24c-.17.14-.33.26-.49.37a2.68,2.68,0,0,1-.45.27l-.49,0-.23.05-.2.23a3.35,3.35,0,0,1-.47.14l-.32.08h-.27a.75.75,0,0,1-.22.11,1.67,1.67,0,0,1-.34,0,2.35,2.35,0,0,1-1.53-.5,1.59,1.59,0,0,1-.6-1.28v-.14l.06-.19s0-.12-.06-.19a1.24,1.24,0,0,1-.06-.31,9,9,0,0,1,.31-1.38l.07-.27-.2.14-.28.28-.27.17Zm3.35-.64v.28l-.06.3,0,.23-.09.3a.31.31,0,0,0,0,.11.87.87,0,0,0,0,.18,1.23,1.23,0,0,0,0,.29,1.43,1.43,0,0,0,.09.27v.11a.9.9,0,0,0,.22.19.82.82,0,0,0,.25.1l.28,0a1.93,1.93,0,0,1,.5-.24,4,4,0,0,0,.56-.25l.43-.23,1.07-1,.34-.42.21-.09,0-.23.09-.19A7,7,0,0,0,205,162l0-.07,0-.31a1.79,1.79,0,0,0-.5-.74,1.12,1.12,0,0,0-.68-.2l-.2,0-.22.06-.33.11-.17.26a3.35,3.35,0,0,0-.73.73,1.8,1.8,0,0,1-.54.55l-.37-.08h-.15l0,0a1.1,1.1,0,0,1,0,.28.48.48,0,0,1-.06.18Z" transform="translate(0.5 0.5)" style="fill:#2a3f8f"/><path d="M221.25,163.6l.45-.18.33-.19a1.14,1.14,0,0,1,.24-.22.43.43,0,0,1,.24-.08l.7-.29.36-.35a1.52,1.52,0,0,0,.27-.08.42.42,0,0,0,.15-.11,1.49,1.49,0,0,1,.24-.18.54.54,0,0,1,.21,0h.12l.09,0a.26.26,0,0,1,.1.11.19.19,0,0,1,0,.1,1.86,1.86,0,0,1-.1.34,1.62,1.62,0,0,1-.06.17l-.35.47-.49.42a.42.42,0,0,1-.13.29.6.6,0,0,0-.61.52.93.93,0,0,1-.5.21l-.11.15-.25.11a1,1,0,0,1-.54.25l0,0a2.32,2.32,0,0,0-.42.3,2,2,0,0,0-.35.06,1.27,1.27,0,0,0-.32.13l-.22.05-.27,0-.18,0h-.22a2.58,2.58,0,0,1-.67-.11,4.76,4.76,0,0,1-.86-.39L218,165a1.91,1.91,0,0,1-.45-.47l-.06-.19-.09-.08a2.73,2.73,0,0,1-.21-.3,3,3,0,0,1-.16-.31l0-.07a.35.35,0,0,0,0-.12.28.28,0,0,0-.05-.16.58.58,0,0,0-.16-.13,2.08,2.08,0,0,0-.07-.36.85.85,0,0,0-.13-.25l-.06-.34-.16-.3a2.29,2.29,0,0,0-.28.32l-.17.2a.92.92,0,0,0-.23.2,1.83,1.83,0,0,0-.18.29.71.71,0,0,0-.29.2.63.63,0,0,0-.12.3l-.09.19-.29.3-.37.4-.37.19-.15.28,0,.06a11.85,11.85,0,0,1-1.2,1.28l-.47.28-.31.27a3,3,0,0,0-.39.29,2.57,2.57,0,0,0-.33.33l-.37.13h-.38l-.22,0H210l-.21,0-.12,0a.57.57,0,0,1-.32-.13.66.66,0,0,1-.23-.35l0-.15-.06-.08,0-.16-.06-.11a3.79,3.79,0,0,1,.14-1,7.06,7.06,0,0,1,.41-1.15l.12-.47a5.85,5.85,0,0,0-.48.34l-.47.36-.32.13a.53.53,0,0,1-.21.21,1.09,1.09,0,0,1-.35.12l-.12.08a4.28,4.28,0,0,1-1.22.71.28.28,0,0,1-.13,0,.52.52,0,0,1-.14-.17l.06-.21a.69.69,0,0,1,.15-.2.37.37,0,0,1,.18-.08l0-.31a.74.74,0,0,1,.16-.2l.29-.19a3.34,3.34,0,0,1,.32-.33,2.88,2.88,0,0,1,.38-.28.89.89,0,0,1,.25-.4.83.83,0,0,1,.38-.16l.12-.27.23-.09a.46.46,0,0,1,.14-.21.66.66,0,0,1,.28-.15l.11,0a.13.13,0,0,0,.11,0,.48.48,0,0,0,.07-.16c.17-.16.34-.31.52-.45a7.09,7.09,0,0,1,.57-.45,1.43,1.43,0,0,0,.46-.18.28.28,0,0,0,.12-.23v-.07l1.16-1,.16-.17.44-.33.52-.45c.19-.19.44-.42.75-.68s.71-.58,1.18-.94l.51-.37.76-.54a4.38,4.38,0,0,1,.44-.16.85.85,0,0,1,.25,0,4.53,4.53,0,0,0,.21-.59c.06-.2.13-.44.19-.69l.14-.16c.19-.59.4-1.17.62-1.72s.47-1.1.74-1.63l.22-.16v-.11a.87.87,0,0,1,.07-.37,1.05,1.05,0,0,1,.22-.3s0-.05.06-.06a1.22,1.22,0,0,0,.25-.4l.27-.27.09-.38a3.64,3.64,0,0,1,.33-.55,4.79,4.79,0,0,1,.49-.54l.27-.34.29-.16.13.08.15-.11.33.05.22.06.11.22-.08.15.11.13v.11a3.07,3.07,0,0,1-.19.9c0,.06,0,.11,0,.13l0,.28a3,3,0,0,1-.17.59,1.54,1.54,0,0,1-.26.47l0,.21a3.53,3.53,0,0,1-.14.56,2.75,2.75,0,0,1-.23.49l-.15.12,0,.13-.06.16,0,.19a.8.8,0,0,0-.19.23.5.5,0,0,0-.07.27.62.62,0,0,0,0,.13.58.58,0,0,1,0,.1,2.81,2.81,0,0,1-.21.66,5.28,5.28,0,0,1-.4.7,1.23,1.23,0,0,0-.16.15.31.31,0,0,0-.06.13.17.17,0,0,0,0,.07.31.31,0,0,1,0,.08l-.18.38c-.07.14-.15.29-.25.45a.81.81,0,0,0-.19,0l-.06.06a.46.46,0,0,1,0,.09s0,.09.06.16a3.81,3.81,0,0,1-.25.62c-.12.24-.25.48-.4.74l-.16.32a3.07,3.07,0,0,0-.13.5,2.83,2.83,0,0,0,0,.5v.2l-.09.3.09.31a6.82,6.82,0,0,0,.07,1,8.61,8.61,0,0,0,.2,1,1,1,0,0,1-.06.15.16.16,0,0,0,.05.11.39.39,0,0,0,.14.1l.21.4a1.84,1.84,0,0,1,.17.22,1.71,1.71,0,0,1,.14.27l.3.15a2.93,2.93,0,0,0,.45.15l.07,0,.4,0a.34.34,0,0,0,.15,0Zm-8,.13.22-.34c.22-.21.44-.43.65-.66s.43-.5.65-.78l.2-.08.18-.31a10.88,10.88,0,0,0,.77-1.08c.29-.45.5-.75.61-.9,0-.4.06-.7.08-.9s.07-.37.11-.54l-.3,0-.12.26-.18.21-.36.36-.35.35-.14.11-.24.11,0,.19-.21.26c-.38.46-.73.88-1.06,1.25a1.5,1.5,0,0,0-.27.29,1.19,1.19,0,0,0-.15.35,1.44,1.44,0,0,0-.27.28.9.9,0,0,0-.17.32,1,1,0,0,0-.24.22,1.59,1.59,0,0,0-.19.32.82.82,0,0,1-.11.3.62.62,0,0,1-.22.24,1.87,1.87,0,0,1-.12.25l-.21.35a1.44,1.44,0,0,1-.11.19,1,1,0,0,0-.16.53.61.61,0,0,0,.14.07l.1,0a.35.35,0,0,0,.19-.1,2.15,2.15,0,0,0,.26-.3l.25-.16c.08-.08.18-.2.3-.34s.34-.37.47-.37Z" transform="translate(0.5 0.5)" style="fill:#2a3f8f"/><path d="M223.18,164a12.18,12.18,0,0,1-1.69,1.31,3.89,3.89,0,0,1-1.16.62.32.32,0,0,1-.2-.08.29.29,0,0,1-.09-.21.4.4,0,0,1,.09-.25.88.88,0,0,1,.29-.22v-.25c.41-.45.79-.83,1.14-1.15a2.06,2.06,0,0,1,.62-.47,1.37,1.37,0,0,0,.42-.46l.12-.18.28-.19.18-.2.14-.08.09-.22.7-.67.63-.53.54-.66a5.44,5.44,0,0,1,.55-.52,6,6,0,0,1,.63-.46l.27-.14.07-.2a5.11,5.11,0,0,1,1.06-.85,2.08,2.08,0,0,1,.87-.17,1.36,1.36,0,0,1,.49.08c.14.06.2.12.2.19a2.23,2.23,0,0,1-.26.4c-.18.24-.33.46-.46.66l.61-.31.38-.14.21-.08a1,1,0,0,1,.24,0h.19l.12,0,.3,0a2.88,2.88,0,0,1,1.71.76,2.1,2.1,0,0,1,.65,1.56s0,.07,0,.13a.81.81,0,0,0,0,.15l-.17.61,0,.22-.18.45-.31.64-.21.24-.26.21-.09.27a2,2,0,0,1-.41.52c-.28.3-.64.65-1.08,1.07l-.23.35-.25.15-.24.06-.29.24c-.17.14-.33.26-.49.37a3.22,3.22,0,0,1-.46.27l-.48,0-.24.05-.19.23a4,4,0,0,1-.48.14l-.32.08h-.26a1,1,0,0,1-.23.11,1.49,1.49,0,0,1-.33,0,2.33,2.33,0,0,1-1.53-.5,1.57,1.57,0,0,1-.61-1.28v-.14l.06-.19s0-.12-.06-.19a1.24,1.24,0,0,1-.06-.31,10.64,10.64,0,0,1,.31-1.38l.08-.27-.21.14-.28.28-.26.17Zm3.34-.64v.28l-.06.3,0,.23-.09.3s0,.06,0,.11,0,.1,0,.18a1.23,1.23,0,0,0,0,.29,1.43,1.43,0,0,0,.09.27v.11a.9.9,0,0,0,.22.19.93.93,0,0,0,.25.1l.28,0a2.11,2.11,0,0,1,.5-.24,3.53,3.53,0,0,0,.56-.25l.43-.23,1.08-1,.34-.42.2-.09,0-.23.09-.19a6.7,6.7,0,0,0,.43-1.07l0-.07,0-.31a2,2,0,0,0-.5-.74,1.14,1.14,0,0,0-.68-.2l-.21,0-.22.06-.32.11-.18.26a3.35,3.35,0,0,0-.73.73,1.8,1.8,0,0,1-.54.55l-.36-.08H227l0,0a1.91,1.91,0,0,1,0,.28.75.75,0,0,1-.07.18Z" transform="translate(0.5 0.5)" style="fill:#2a3f8f"/><path d="M157.88,202.92a1.35,1.35,0,0,1,.36.28.54.54,0,0,1,.11.3,1.45,1.45,0,0,1-.06.33,4.38,4.38,0,0,1-.16.47,3.59,3.59,0,0,1-.43.69,5,5,0,0,1-.61.61l-.42.14-.25.55a26.54,26.54,0,0,1-4.73,2.16,12.55,12.55,0,0,1-3.95.75,10.64,10.64,0,0,1-1.29-.08,7.37,7.37,0,0,1-1.19-.24l-.53-.51-.47.14-.59-.57L143,208a7.6,7.6,0,0,1-3.15-2.19,11,11,0,0,1-2.33-3.81l.09-.53-.34-.37,0-.46-.3-.2-.12-.69.12-.43-.27-.23.27-.8-.32-.23.1-.76-.2-.43A25.74,25.74,0,0,1,137,193a3.62,3.62,0,0,1,.75-1.89l-.05-1,.25-.94.33-.34a9.74,9.74,0,0,1,1.51-3.32,31.13,31.13,0,0,1,3.35-4.31l.72-.52.67-.85,1.06-.64.4-.16.2-.37a16.64,16.64,0,0,1,3.62-2.35,21.3,21.3,0,0,1,5.28-1.31l.5.09.87-.19,1,.39.29.37.87.18.92.62v.28l.5.32a15.43,15.43,0,0,1,.43,2.5c.09.93.14,2,.14,3.13a15.4,15.4,0,0,1-.09,1.76,11.57,11.57,0,0,1-.28,1.54l-.3.36.1.55a20.26,20.26,0,0,1-.85,2.67c-.39,1-.94,2.33-1.63,3.86l-.15.57-.72.37-.55-.18-.42.41-1,.21-.34-.21h-.48l-.05-1,.33-.32-.28-.52a1.64,1.64,0,0,0,0-.37,9.84,9.84,0,0,1,.55-3.8l0-.32.34-.62-.1-.64c.2-.44.4-.93.59-1.47a18.94,18.94,0,0,0,.53-1.83l1.22-1,.27-1.58-.1-.76a4.51,4.51,0,0,0-1-.68,4.92,4.92,0,0,0-1.14-.37l-.25-.42-1.81.05-.52-.18-.4.36a10.79,10.79,0,0,0-1.08.23,7.94,7.94,0,0,0-1,.35l-.47-.19-.65.32-.1.35-1.19,1h-.34l-.15.46-1.11,1.16-1,1.08-.29.3,0,.37a17.4,17.4,0,0,0-2.22,4.54,22.46,22.46,0,0,0-1,5.54l-.33.7.37.58c.05.52.12,1,.19,1.51s.16.95.26,1.4l-.1.64.47.62.55,1c.3.53.52,1,.67,1.29v.83l.74.39a6.37,6.37,0,0,0,2.37,1.83,6.76,6.76,0,0,0,2.92.78,9.85,9.85,0,0,0,1.56-.21,10.07,10.07,0,0,1,1.81-.2l.25.13.92-.8.84-.18.52-.48,1-.37.72.05.2-.55Z" transform="translate(0.5 0.5)" style="fill:#2a3f8f"/><path d="M163.74,199.49a21.14,21.14,0,0,1-2.84,2.21,6.68,6.68,0,0,1-2,1,.47.47,0,0,1-.35-.14.43.43,0,0,1-.15-.34.68.68,0,0,1,.15-.42,1.51,1.51,0,0,1,.5-.38v-.41c.69-.77,1.33-1.41,1.91-1.94a3.51,3.51,0,0,1,1-.79,2.52,2.52,0,0,0,.72-.78l.2-.3.47-.32.3-.34.25-.14.14-.36L165.3,195l1.07-.89.92-1.12a8.34,8.34,0,0,1,.91-.87,9.47,9.47,0,0,1,1.07-.78l.45-.23.12-.34a8,8,0,0,1,1.79-1.43,3.33,3.33,0,0,1,1.46-.29,2.21,2.21,0,0,1,.83.14c.22.09.34.2.34.32a3.66,3.66,0,0,1-.45.67c-.3.41-.55.78-.77,1.11l1-.52.64-.23a1.46,1.46,0,0,1,.77-.18h.31a1.18,1.18,0,0,1,.21,0l.5,0a4.74,4.74,0,0,1,2.88,1.27,3.54,3.54,0,0,1,1.09,2.62,1.34,1.34,0,0,1,0,.22c0,.1,0,.18,0,.26l-.27,1-.1.37-.3.75-.52,1.08-.35.41-.45.34-.15.46a3.07,3.07,0,0,1-.69.88c-.46.5-1.07,1.1-1.81,1.8l-.4.6-.42.25-.4.09-.49.41c-.28.23-.56.44-.82.62a6.5,6.5,0,0,1-.77.46l-.82.05-.4.09-.32.39-.8.23-.54.13-.44,0a1,1,0,0,1-.39.18,1.86,1.86,0,0,1-.56.07,4,4,0,0,1-2.58-.83,2.67,2.67,0,0,1-1-2.17v-.23l.1-.32a2,2,0,0,1-.1-.32,1.89,1.89,0,0,1-.1-.53,15.94,15.94,0,0,1,.52-2.31l.12-.46-.35.23-.47.48-.44.28Zm5.63-1.08v.48l-.1.51-.05.39-.15.5a.71.71,0,0,0,0,.17c0,.07,0,.17,0,.31a2.38,2.38,0,0,0,0,.49,2,2,0,0,0,.15.45v.18a1.59,1.59,0,0,0,.37.34,2.81,2.81,0,0,0,.42.17l.48,0a3.07,3.07,0,0,1,.84-.41,6.56,6.56,0,0,0,.94-.41l.72-.39,1.81-1.67.57-.71.35-.14-.05-.39.15-.32a12.41,12.41,0,0,0,.72-1.81l.05-.11,0-.53a3.2,3.2,0,0,0-.85-1.24,1.78,1.78,0,0,0-1.14-.34,2,2,0,0,0-.34,0l-.38.11-.54.18-.3.44a5.94,5.94,0,0,0-1.23,1.23,2.9,2.9,0,0,1-.9.92l-.62-.14h-.25s-.05,0-.05,0a2,2,0,0,1,0,.47,1.15,1.15,0,0,1-.11.31Z" transform="translate(0.5 0.5)" style="fill:#2a3f8f"/><path d="M182.86,200.29l-.17.25a1.61,1.61,0,0,0-.87.43,2.66,2.66,0,0,1-.72.47l-.44.32a3.6,3.6,0,0,0-1.24.73c-.07.08-.11.11-.13.11a.59.59,0,0,1-.2,0,.71.71,0,0,1-.17-.09l-.1-.14v-.09a2.88,2.88,0,0,1,.65-1.17c.31-.46.56-.83.74-1.12l.35-.32a1.38,1.38,0,0,0,.83-.66,3.24,3.24,0,0,1,.58-.76,1.4,1.4,0,0,1,.29-.47,1,1,0,0,1,.41-.26l1-1,.05-.41,1.73-1.79.3-.14.1-.18.1-.57.45-.6.17-.11-.05-.37-.22-.46a.17.17,0,0,0,0-.07.29.29,0,0,1,0-.09q0-.48.75-1.14a4.48,4.48,0,0,1,1.75-1l.55-.33.62-.09h1.22l0,.09.35,0,.62.23.2.3.45.27.52.14a16.67,16.67,0,0,0,1.4,1,3.32,3.32,0,0,1,1.18,1.08l.67.66.1.23,0,.37.25.3.12.39c.07.32.12.57.15.74a2.92,2.92,0,0,1,.05.45,11.31,11.31,0,0,1-.8,3.53c-.53,1.48-.86,2.49-1,3h.35l.62-.41.35-.05,1.78-1.23.35-.05.25-.5.77-.62.42-.18.25-.23.54-.58.33-.18c.81-.44,1.45-.76,1.93-1a3.19,3.19,0,0,1,1-.3.56.56,0,0,1,.3.08.23.23,0,0,1,.12.2,2.46,2.46,0,0,1-.34.74,1.88,1.88,0,0,1-.62.74l-.62.62a4.31,4.31,0,0,0-.67.68,6.61,6.61,0,0,1-.6.63l-.25.34-.57.18-.05.14-.29.28-.5.25-.57.59-.25.44-.72.14-.15.27a5.4,5.4,0,0,1-.78.61,6.59,6.59,0,0,1-.95.51l-.55.39a1.3,1.3,0,0,0-.5.08,1,1,0,0,0-.32.29l-.77.62-.39-.05-.13.07a1.31,1.31,0,0,0-.4.34l-1.76.19-.37-.14-.25.05a.89.89,0,0,1-.53-.27.87.87,0,0,1-.16-.58,3.17,3.17,0,0,1,.12-.8,6.72,6.72,0,0,1,.42-1.08l.1-.37.3-.48.05-.32.82-2.47.1-.25V199c.05-.4.09-.74.11-1s0-.52,0-.72a2.54,2.54,0,0,0-.23-1.14,2.44,2.44,0,0,0-.76-.88l-.13-.36a3.3,3.3,0,0,1-.81-.25,4.08,4.08,0,0,1-.85-.6l-.52-.09-.35.55-1.17.62-.39.52-.32.28-.55.59-.42.67-1.12,1.08-.25.34-.54.18-.18.23-.59.71a1,1,0,0,1-.31.39A.84.84,0,0,1,182.86,200.29Z" transform="translate(0.5 0.5)" style="fill:#2a3f8f"/><path d="M203.16,199.6a1.27,1.27,0,0,0-.78.62c-.21.34-.36.51-.44.51a.46.46,0,0,1-.22-.11.34.34,0,0,0-.18-.08.2.2,0,0,0-.13,0,1.37,1.37,0,0,0-.24.19l-.3.32a2.09,2.09,0,0,1-.65.36.84.84,0,0,0-.51.35l-.4.23-.37.32-.42.3a1.25,1.25,0,0,1-.29.1.78.78,0,0,1-.26,0h-.18l-.17,0-.09-.23a1.37,1.37,0,0,1,.12-.62.69.69,0,0,1,.37-.32l-.05-.52.46-.39c.17-.16.43-.38.76-.69l.17-.53h.2a.64.64,0,0,0,.36-.08.68.68,0,0,0,.24-.28l.27-.42.74-.29a5.29,5.29,0,0,1,.47-.62,3.49,3.49,0,0,1,.5-.46l.86-.63a5.89,5.89,0,0,1,.63-.4l.3-.09a1.73,1.73,0,0,1,.31-.47,6.08,6.08,0,0,1,.7-.65l.82-.62c.2-.22.41-.43.62-.64s.46-.45.75-.71l.44-.1v-.34l1.84-1.26.64-.36a1.62,1.62,0,0,1,.28-.25,2.51,2.51,0,0,1,.37-.19l.4-.41.29-.19a3,3,0,0,1,.5-.5,2.21,2.21,0,0,1,.67-.34l.25-.09.22-.35c.43-.3,1-.69,1.79-1.17l.59-.36.67-.39.47-.21a1.3,1.3,0,0,1,.33-.07.71.71,0,0,0,.37-.11.65.65,0,0,1,.3-.12l.28,0,.36,0a1.59,1.59,0,0,1,.79.23c.27.15.4.28.4.39l0,.09a.46.46,0,0,0-.07.14l.13.08c.06,0,.09.07.09.1,0,.22-.2.53-.61.94a5.73,5.73,0,0,1-1.52,1.08l-.38.36c0,.14-.34.48-1,1l-1,.82-.4.26-.34.41-.47.37-.5.52-.47.23-.15.28-.72.66-.5.53-.52.18c-.23.31-.49.62-.78.95s-.6.67-.93,1l-.87.71-.77.71a1.34,1.34,0,0,1-.17.37,2.07,2.07,0,0,1-.32.36l-.3.85a.49.49,0,0,0,.2.05l.12,0,.28-.07.57-.36.49-.16.3-.23.47-.51.25-.11.42-.05a.73.73,0,0,1,.47-.5l.23-.09.14-.34.57-.37c.3-.25.63-.5,1-.77s.76-.54,1.21-.83l.82-.83,1.06-.85a2.25,2.25,0,0,1,.93-.64,4,4,0,0,1,1.31-.2.88.88,0,0,1,.67.36,1.45,1.45,0,0,1,.29.9v.09l-.17.39.07.23-.07,1.16-.1.44.17.32,0,.66a2.15,2.15,0,0,0,.7,1.11,1.74,1.74,0,0,0,1.16.38,2.37,2.37,0,0,0,1.11-.5c.49-.34.73-.59.73-.76s.2-.14.6-.29.6-.23.81-.33l.57-.59a2,2,0,0,0,.53-.14.87.87,0,0,0,.34-.3l.3-.23.19,0h.16a.61.61,0,0,1,.38.1.54.54,0,0,1,.19.33v.12a.76.76,0,0,1-.08.32,1.89,1.89,0,0,1-.24.37,5.82,5.82,0,0,1-.61.82,5.27,5.27,0,0,1-.81.71l-.15.5-.54.1a2.14,2.14,0,0,1-.47.68,2.26,2.26,0,0,0-1.27.93,1.81,1.81,0,0,1-.64.31,4.31,4.31,0,0,1-1.32,1.08,3.65,3.65,0,0,1-1.59.34,4.16,4.16,0,0,1-3-1.07,3.84,3.84,0,0,1-1.1-2.92c0-.15,0-.3,0-.47s0-.31,0-.46a1.14,1.14,0,0,0-.37.18,2.24,2.24,0,0,0-.37.32l-.45.43-.87.46-.62.58a1.92,1.92,0,0,1-.36.29.34.34,0,0,1-.18.07H211l-.18,0v0c0,.46-.46,1.06-1.39,1.8a13.39,13.39,0,0,1-3.32,1.91,6,6,0,0,1-1.08.53,2.88,2.88,0,0,1-.95.18,2.19,2.19,0,0,1-1.37-.58,1.61,1.61,0,0,1-.72-1.2,2.65,2.65,0,0,1,.18-.89,8,8,0,0,1,.54-1.18Z" transform="translate(0.5 0.5)" style="fill:#2a3f8f"/><path d="M239.7,200.15a.51.51,0,0,1-.09.26,2.62,2.62,0,0,1-.26.32l-.57.5-.25.34a.88.88,0,0,0-.51.14,1.05,1.05,0,0,0-.31.46l-.49.41-.45.45-.57.56-.53.56-.83.84a2.79,2.79,0,0,1-.4.44,3.51,3.51,0,0,1-.57.4,8,8,0,0,0,.52,1.19,5,5,0,0,0,.6.9,7.65,7.65,0,0,1,.53,1.49,6.72,6.72,0,0,1,.16,1.53,5.33,5.33,0,0,1-.43,2,7.06,7.06,0,0,1-1.18,2l-.2.14-.15.34a17.73,17.73,0,0,1-2.52,2.32,16.64,16.64,0,0,1-2.89,1.76l-.25,0-.24.23a14.88,14.88,0,0,1-1.52.48l-.32.09-.4.05h-.52l-.59-.05a2.53,2.53,0,0,1-1.52-.72,2.38,2.38,0,0,1-.47-1.59,6.23,6.23,0,0,1,1.14-3.46,7.7,7.7,0,0,0,.7-1.19l.2-.14c.2-.24.5-.68.91-1.3a10.27,10.27,0,0,1,1.07-1.4l.3-.25.4-.28.17-.13.2-.58.51-.53.5-.54.15-.14.77-.94.08-.07a5.59,5.59,0,0,0-.25-.57,4.7,4.7,0,0,1-.6-1.83v-.14c0-.12-.08-.22-.11-.31a.93.93,0,0,1,0-.22.7.7,0,0,1,0-.25,3.33,3.33,0,0,1,.2-.32l-.08-.17a.4.4,0,0,1-.07-.19,1.68,1.68,0,0,1,.12-.43q.1-.33.18-.6l.52-.94.4-.28,0-.48c.07-.09.16-.22.3-.39a5.27,5.27,0,0,0,1.31-2.7,2.53,2.53,0,0,0-.17-.91,4.2,4.2,0,0,0-.57-.92v-.14c0-.23-.32-.47-1-.71l-.47-.18-.25,0-.4.23-.81.57-.15.23-.49.47a2.6,2.6,0,0,1-.43.33l-.3.19-.05.29-.42.51-.55.32a2.39,2.39,0,0,0-.37.53,2.33,2.33,0,0,1-.15.23l-.54.43h-.25l-.22.18-.25.32a.83.83,0,0,1-.25.32,1.37,1.37,0,0,1-.42.21l-.1.14a1.66,1.66,0,0,1-.41.58,1.05,1.05,0,0,1-.56.22,1.27,1.27,0,0,1-.41.42,1.6,1.6,0,0,1-.58.22,3,3,0,0,0-.44.25,2,2,0,0,0-.33.32l-.52.23a2.4,2.4,0,0,1-.53.48.89.89,0,0,1-.49.14.71.71,0,0,1-.42-.17.44.44,0,0,1-.17-.36.46.46,0,0,1,.08-.25,1.27,1.27,0,0,1,.29-.23l.22-.2.1-.53.58-.56c.19-.18.38-.34.56-.49l.15-.39.7-.25a1.1,1.1,0,0,1,.29-.54,4.25,4.25,0,0,1,.77-.59L222,198a.56.56,0,0,0,.41-.42.88.88,0,0,1,.33-.51,2.09,2.09,0,0,0,.5-.24.64.64,0,0,0,.12-.34.63.63,0,0,1,.16-.37.74.74,0,0,1,.39-.22,1.54,1.54,0,0,0,.41-.29,1,1,0,0,0,.21-.38c1-1.08,2-2.17,3-3.27a3.92,3.92,0,0,1,.35-.39l.44-.23V191a4.59,4.59,0,0,1,1.14-1.31,2.25,2.25,0,0,1,1.27-.34,4.38,4.38,0,0,1,3.45,1.77,5.85,5.85,0,0,1,1.46,3.77,2.2,2.2,0,0,1,0,.35,2.4,2.4,0,0,0-.05.4,5.44,5.44,0,0,1,.05.55.24.24,0,0,1-.06.13.6.6,0,0,0-.09.15l-.15.3-.1.36-.19.28-.2.46-.67.84c-1.33,1.68-2,2.9-2,3.67a2.14,2.14,0,0,0,.14.81,2.09,2.09,0,0,0,.43.65,1.38,1.38,0,0,0,.4-.16,1.15,1.15,0,0,0,.3-.29l.25-.3a1.35,1.35,0,0,1,.59-.49l.52-.29,0-.39,1.18-1.12q.83-.81,1.35-1.26l.34-.12.05-.36a6.49,6.49,0,0,1,.81-.68,4.25,4.25,0,0,1,.78-.42c.07-.31.44-.54,1.12-.69l.2,0a1.79,1.79,0,0,1,.37-.49,1.36,1.36,0,0,1,.54-.26,2.87,2.87,0,0,1,.58-.44,1.22,1.22,0,0,1,.54-.16.57.57,0,0,1,.4.14.42.42,0,0,1,.15.32.38.38,0,0,1,0,.16,1.64,1.64,0,0,1-.21.23l0,.37c-.13.15-.32.36-.55.64a4.68,4.68,0,0,1-.91.91v.14a.44.44,0,0,1-.17.4,1.17,1.17,0,0,1-.6.11,1.49,1.49,0,0,1-.38.56A1.3,1.3,0,0,1,239.7,200.15Zm-9,9a7.8,7.8,0,0,0-1.71,1.68q-1.14,1.37-3.05,4l-.1.32-.4.71-.32.58-.15.5a1.15,1.15,0,0,1,0,.14,1.33,1.33,0,0,0-.08.3.46.46,0,0,0,.21.38.89.89,0,0,0,.56.16,5.08,5.08,0,0,0,2.67-1.14,10.93,10.93,0,0,0,2.81-2.93l.25-.55V213a2.23,2.23,0,0,0,.1-.41c.07-.3.11-.52.13-.64a3.69,3.69,0,0,0-.08-.81,2.13,2.13,0,0,0-.25-.63l-.19-.48a1.19,1.19,0,0,0-.09-.47A1,1,0,0,0,230.74,209.18Z" transform="translate(0.5 0.5)" style="fill:#2a3f8f"/><path d="M240.52,199.49a21.14,21.14,0,0,1-2.84,2.21,6.68,6.68,0,0,1-2,1,.47.47,0,0,1-.35-.14.43.43,0,0,1-.15-.34.68.68,0,0,1,.15-.42,1.51,1.51,0,0,1,.5-.38v-.41c.69-.77,1.33-1.41,1.91-1.94a3.51,3.51,0,0,1,1-.79,2.52,2.52,0,0,0,.72-.78l.2-.3.47-.32.3-.34.25-.14.14-.36,1.17-1.13,1.07-.89.92-1.12a8.34,8.34,0,0,1,.91-.87,9.47,9.47,0,0,1,1.07-.78l.45-.23.12-.34a8,8,0,0,1,1.79-1.43,3.33,3.33,0,0,1,1.46-.29,2.21,2.21,0,0,1,.83.14c.22.09.34.2.34.32a3.66,3.66,0,0,1-.45.67c-.3.41-.56.78-.77,1.11l1-.52.64-.23a1.46,1.46,0,0,1,.77-.18h.31a1.18,1.18,0,0,1,.21,0l.5,0a4.74,4.74,0,0,1,2.88,1.27,3.54,3.54,0,0,1,1.09,2.62,1.34,1.34,0,0,1,0,.22c0,.1,0,.18,0,.26l-.27,1-.1.37-.3.75-.52,1.08-.35.41-.45.34-.15.46a3.07,3.07,0,0,1-.69.88c-.46.5-1.07,1.1-1.81,1.8l-.4.6-.42.25-.4.09-.49.41c-.28.23-.56.44-.82.62a6.5,6.5,0,0,1-.77.46l-.82.05-.4.09-.32.39-.8.23-.54.13-.44,0a1,1,0,0,1-.39.18,1.86,1.86,0,0,1-.56.07,4,4,0,0,1-2.58-.83,2.67,2.67,0,0,1-1-2.17v-.23l.09-.32c0-.09-.06-.2-.09-.32a1.89,1.89,0,0,1-.1-.53,15.94,15.94,0,0,1,.52-2.31l.12-.46-.35.23-.47.48-.44.28Zm5.63-1.08v.48l-.1.51-.05.39-.15.5a.71.71,0,0,0,0,.17c0,.07,0,.17,0,.31a2.38,2.38,0,0,0,0,.49,2,2,0,0,0,.15.45v.18a1.59,1.59,0,0,0,.37.34,2.81,2.81,0,0,0,.42.17l.48,0a2.92,2.92,0,0,1,.84-.41,6.56,6.56,0,0,0,.94-.41l.72-.39,1.81-1.67.57-.71.35-.14-.05-.39.15-.32a12.41,12.41,0,0,0,.72-1.81l.05-.11,0-.53a3.2,3.2,0,0,0-.85-1.24,1.78,1.78,0,0,0-1.14-.34,2,2,0,0,0-.34,0l-.38.11-.54.18-.3.44a5.94,5.94,0,0,0-1.23,1.23,3,3,0,0,1-.9.92l-.62-.14h-.25s-.05,0-.05,0a2,2,0,0,1,0,.47,1.15,1.15,0,0,1-.11.31Zm7-13.9a1.56,1.56,0,0,1,.39-.43,3.77,3.77,0,0,1,.73-.44l.27-.27a4.38,4.38,0,0,0,.75-.38,2,2,0,0,0,.47-.43l.55-.27.29-.3a2.65,2.65,0,0,1,1.19-.85,1.17,1.17,0,0,1,.3-.35,1.34,1.34,0,0,1,.4-.19l.32-.28.74-.48.48-.23h.39l.45.28a.49.49,0,0,1,0,.11,1,1,0,0,0,0,.18.48.48,0,0,0,.06.24.81.81,0,0,0,.23.22l.1.39.08.17a1,1,0,0,1,0,.15.79.79,0,0,1-.14.45,3,3,0,0,1-.53.58l-.84.41-.37.26-.55.18a.88.88,0,0,0-.33.06,2.36,2.36,0,0,0-.44.21l-.25.23a1.24,1.24,0,0,1-.32.15l-.3.06a3.15,3.15,0,0,0-.38.24,2.43,2.43,0,0,0-.29.26l-.44.09a2.47,2.47,0,0,1-.29.21.33.33,0,0,1-.16.07,3.52,3.52,0,0,0-.74.22,3.52,3.52,0,0,1-1.1.21.66.66,0,0,1-.17,0l-.17,0a.89.89,0,0,1-.41-.13.28.28,0,0,1-.11-.26.45.45,0,0,1,0-.13A1.2,1.2,0,0,1,253.14,184.51Z" transform="translate(0.5 0.5)" style="fill:#2a3f8f"/><path d="M260,196.92l.32-.34c.53-.55,1.26-1.31,2.18-2.29,2.66-2.82,4.25-4.31,4.76-4.44l.53-.16.54-.32.57-.19.35.09.37,0a4.85,4.85,0,0,1,1,.89,1.38,1.38,0,0,1,.3.85,3.64,3.64,0,0,1,0,.56c0,.19-.09.4-.15.61l-.1.78c-.08.32-.16.6-.24.86s-.15.48-.23.7l-.35.48v.41c-.2.4-.39.82-.58,1.28s-.45,1.12-.76,2l-.25.18a.31.31,0,0,1,.05.1.71.71,0,0,1,.05.27.78.78,0,0,1-.22.48.81.81,0,0,0-.22.5v.19l1-.87a7.64,7.64,0,0,1,.69-.86,11.77,11.77,0,0,1,.94-.88l.38-.14.15-.25.05-.28a1.69,1.69,0,0,1,.29-.43,1.75,1.75,0,0,1,.33-.28l.74-.41.37-.53a11.37,11.37,0,0,1,2.41-1.75,4.56,4.56,0,0,1,2.06-.54,2.61,2.61,0,0,1,1.13.22,1.18,1.18,0,0,1,.58.63l.47.48.57,1.15.6,1.19-.15.5a2.36,2.36,0,0,1,.67.92c.25.49.54.73.89.73l.3,0,.42-.11.2-.09.2-.34.62-.41.39-.37a5.91,5.91,0,0,0,2-1,3.5,3.5,0,0,1,1.57-.77.45.45,0,0,1,.34.1.5.5,0,0,1,.1.36c-.13.36-.22.64-.27.82l-.32.35q-.64.72-1.44,1.5c-.53.51-1.1,1.05-1.71,1.61l-.28.23-.39.23a1.52,1.52,0,0,1-.85.8l-.19.11-.33.3-1,.39-.56.21a1.85,1.85,0,0,1-.41.07,2.65,2.65,0,0,1-1.73-.76,5.74,5.74,0,0,1-1.42-2.06l-.05-.46a7.32,7.32,0,0,1-.88-.78,10.45,10.45,0,0,1-.81-.91,2,2,0,0,0-.28-.11l-.26,0a1.45,1.45,0,0,0-.65.2,14.7,14.7,0,0,0-1.39,1l-.47.14-.4.53a2.55,2.55,0,0,1-.58.52,2.36,2.36,0,0,1-.68.32l-.72,1c-1,1-1.73,1.76-2.25,2.27s-.94.89-1.27,1.16a3.3,3.3,0,0,1-1.17,1,4,4,0,0,1-1.56.26,1.27,1.27,0,0,1-.69-.14.91.91,0,0,1-.28-.55l.05-.66-.15-.23.1-.43c.48-1.47.83-2.58,1.05-3.34a7.68,7.68,0,0,0,.34-1.34,1.25,1.25,0,0,1,.1-.21c.06-.13.13-.28.2-.45l.24-.39c0-.06-.05-.12-.07-.17a.44.44,0,0,1,0-.15,3.6,3.6,0,0,1,.28-.86,3.15,3.15,0,0,0,.27-1.11.18.18,0,0,0-.12-.17.78.78,0,0,0-.33-.06,1.73,1.73,0,0,0-1.37.66,4.39,4.39,0,0,1-.69.74l-.64.75-.55.48-.34.1-.18.13-.15.23-.19.28a1.62,1.62,0,0,0-.33.17.4.4,0,0,0-.12.15l-.47.39c-1.21.87-2.16,1.52-2.87,2a3.88,3.88,0,0,1-1.35.66.47.47,0,0,1-.35-.14.43.43,0,0,1-.15-.34.68.68,0,0,1,.15-.42,1.51,1.51,0,0,1,.5-.38v-.41c.69-.77,1.33-1.41,1.91-1.94a3.51,3.51,0,0,1,1-.79.26.26,0,0,0-.05-.14l.05-.08h.15a.24.24,0,0,0,.2-.11,1.06,1.06,0,0,0,.12-.37l.35-.27Z" transform="translate(0.5 0.5)" style="fill:#2a3f8f"/><path d="M238.14,172.09c1.27-.59,1.91,0,3.18.58a1.26,1.26,0,0,0,1.92,0l.64-14.11c0-1.76.64-3.52.64-5.28h.64v1.18l1.27,18.21c.63.59.63,2.35,1.28,1.75l.63-.57c.64-.59,1.27,0,1.91,0,1.28-1.18,2.56-1.18,3.19-2.94a2.06,2.06,0,0,1,2.55,0c1.91,1.76,3.84,1.18,5.75,1.18l1.28-1.18c1.27-.59,1.91.59,2.55,1.18s1.27,1.17,1.91,0l1.27-15.87v-3.53c0-.59,0-.59.64,0v.59c0,1.18.64,2.35.64,3.52-.64,2.94,0,5.88,0,8.82.64,1.76.64,2.94,1.28,6.47,0,0,.63,3.53.63,2.33s.64-2.33,1.28-2.33c1.92,0,3.83,0,5.75-2.36,0-.58.63,0,1.27.59s1.27,1.18,1.27,0c1.92-34.09.65-10.58.65-10.58l.63-13.52a10.57,10.57,0,0,1,.64-4.11,9.35,9.35,0,0,1,.63,4.11,15.29,15.29,0,0,1,.63,5.29c.65,45.86,1.92,22.91,1.92,22.91,0,.6,1.28,7.07,1.28,7.66,0,1.18.63,3.53.63,4.12,1.28,2.33,1.28,4.69,2.56,7.64,0,.59.64.59.64,1.17.63,0,.63-.58.63-1.17,0-5.88,1.28-11.76,2.55-17.64.63-.58.63-1.78,1.27-2.35s.65-.59,1.28-.59a8.69,8.69,0,0,1,3.83-.59c2.55,0,4.47,1.18,7.66,1.18V175c-3.83.6-6.38-1.17-9.56-.6a3.66,3.66,0,0,0-3.21,1.2,6.42,6.42,0,0,0-1.27,4.11c-1.27,3.53-1.27,4.71-1.27,8.23-.64,1.76-.64,6.47-1.28,8.23,0,1.18,0,1.18-.63,1.18a2.06,2.06,0,0,1-.64-1.18c0-.59-.64-1.18-.64-2.35-.64-.59-.64-1.75-1.28-3,0,0-.64-2.93-.64-3.52,0,0-.63-2.35-1.27-4.11,0,0-.64-4.71-.64-6.48l-1.92-12.33c-1.26-5.89,0-12.35-1.26-18.23v-.59c-.64,0,0,.59,0,1.18l-1.27,22.34v2.94c-1.29.58-2.56-1.18-3.19-.59s-1.29,1.17-1.29,1.76c-1.9,1.16-3.18-.59-5.1.59a9.21,9.21,0,0,0-.64,4.11c0,.59-.63.59-.63,0-.64-2.34,0-4.7-.64-7.05-.64-4.11-.64-7.64-1.28-12.35,0,0-.64-1.17-.64,0v.59l-.63,11.76v2.94c-1.28.57-2.55,0-3.83-1.18a.93.93,0,0,0-1.27,0c-.64,0-.64,1.18-.64,1.18h-5.11a3.38,3.38,0,0,0-2.55-1.76,14,14,0,0,1-3.19,2.93,5.09,5.09,0,0,1-2.55.6h-.64v.58c-.63.58-.63.58-.63,1.17v1.18c-.65,0-.65,0-.65-.59v-.59a2.05,2.05,0,0,1-.63-1.75l-1.27-15.88c-.64-.59,0-1.18-.64-2.35v1.76l-.64,12.35a4.78,4.78,0,0,1-1.27,3.52c0,.6-.66.6-1.29,0s-1.27-.6-1.91-1.17a.92.92,0,0,0-1.27,0Z" transform="translate(0.5 0.5)" style="fill:#2a3f8f;stroke:#2a3f8f;stroke-linecap:square;stroke-miterlimit:10;stroke-width:0px;fill-rule:evenodd"/><rect x="135.95" y="172.59" width="102.69" height="1.76" style="fill:#2a3f8f;stroke:#2a3f8f;stroke-linecap:square;stroke-miterlimit:10;stroke-width:0px"/><path d="M149.47,156.8c7-20.57-.63-39.39-17.85-44.67-12.76-4.12-33.8,5.28-33.17,10.58,0,1.76,5.1,6.46,14,2.35-12.76,14.7-28.71-20.57-58.06-11.17-40.81,13.52-29.34,60,30,94.65,10.83,5.87,20.41,6.47,23,0,8.95-24.1,33.19-25.88,42.1-51.74Z" transform="translate(0.5 0.5)" style="fill:#2a3f8f;fill-rule:evenodd"/><path d="M123.33,116.24c0,1.17,3.82-1.76,10.2,3.53,4.46,3.54,3.18,7.64,6.39,7,1.9-.58.64-6.47-6.39-9.41-4.47-2.35-9.56-2.93-10.2-1.17Z" transform="translate(0.5 0.5)" style="fill:#fff;fill-rule:evenodd"/><path d="M77.39,122.12c-1.9,3.54,4.48.59,10.85,6.47,2.55,1.76,8.29,5.87,10.21,4.7.63-1.18-4.46-.59-7.66-4.7-5.1-5.28-11.47-8.82-13.4-6.47Z" transform="translate(0.5 0.5)" style="fill:#fff;fill-rule:evenodd"/><path d="M90.79,151.51a2.37,2.37,0,0,0-1.27,3c0,1.76,1.27,2.93,2.55,1.76.65-.59-.63-.59-1.28-1.76-1.27-1.77.65-3,0-3Z" transform="translate(0.5 0.5)" style="fill:#fff;fill-rule:evenodd"/><path d="M67.19,165c16,28.22,40.18,31.16,51.67-3.53-16.58,11.76-35.08,14.12-51.67,3.53Z" transform="translate(0.5 0.5)" style="fill:#fff;fill-rule:evenodd"/><path d="M67.85,162.1c1.26,2.93-1.29,4.7-3.2,4.7" transform="translate(0.5 0.5)" style="fill:none;stroke:#2a3f8f;stroke-miterlimit:10;stroke-width:0.998875px"/><path d="M117,158.56c.63,3.54,3.19,4.12,5.1,2.94" transform="translate(0.5 0.5)" style="fill:none;stroke:#2a3f8f;stroke-miterlimit:10;stroke-width:0.998875px"/><path d="M99.08,185c.65-1.17,0-2.94-1.26-2.94-.65-.59-1.92,0-1.92.58,0,0,0,.6.63,0-.63,1.19-1.9-1.17-3.81-.58-3.2,1.18-2.56,4.12,1.91,6.45a1.23,1.23,0,0,0,1.9,0c.64-1.74,1.92-1.74,2.55-3.51Z" transform="translate(0.5 0.5)" style="fill:#2a3f8f;fill-rule:evenodd"/><path d="M97.17,182.08a2.06,2.06,0,0,1,1.28.58h0v-.58Z" transform="translate(0.5 0.5)" style="fill:#2a3f8f;fill-rule:evenodd"/><path d="M94,182.66a2,2,0,0,1,1.26.6h0c-.62-.6-.62-.6-1.26-.6Z" transform="translate(0.5 0.5)" style="fill:#2a3f8f;fill-rule:evenodd"/><polygon points="95.75 184.94 95.75 185.51 95.75 185.51 95.75 185.51 95.75 184.94 95.75 184.94" style="fill:#2a3f8f;fill-rule:evenodd"/><path d="M53.8,138c-1.91-13.52,13.39-14.11,16-2.35l2.54,14.7a17.2,17.2,0,0,0-15.93,2.35Z" transform="translate(0.5 0.5)" style="fill:#fff;fill-rule:evenodd"/><path d="M58.9,142.11c-.64-6.47,6.39-6.47,7.66-1.18l1.29,7.64a11.16,11.16,0,0,0-7.66,1.19Z" transform="translate(0.5 0.5)" style="fill:#2a3f8f;fill-rule:evenodd"/><path d="M127.79,139.76c1.27-13.52-13.4-14.1-16.59-2.36l-2.54,14.11c5.73-1.75,11.48-.59,16.58,2.35Z" transform="translate(0.5 0.5)" style="fill:#fff;fill-rule:evenodd"/><path d="M122.69,143.87c.64-6.47-6.37-6.47-8.3-1.18l-1.27,7.65c3.2-1.18,5.74,0,7.65.58Z" transform="translate(0.5 0.5)" style="fill:#2a3f8f;fill-rule:evenodd"/><path d="M123.33,148.57c2.54-2.35,6.36-2.94,8.93,1.77l.54-.58s-3.29-7.06-9.73-1.87Z" transform="translate(0.5 0.5)" style="fill:#fff"/><path d="M123.33,150.91c2.54-2.36,6.36-2.95,8.93,1.76l.54-.58s-3.29-7.06-9.73-1.87Z" transform="translate(0.5 0.5)" style="fill:#fff"/><path d="M123.31,152.82c2.36-2.36,5.91-2.95,8.29,1.76l.5-.58s-3-7.06-9-1.87Z" transform="translate(0.5 0.5)" style="fill:#fff"/><path d="M57.83,147.51c-2.54-2.35-6.36-2.94-8.93,1.77l-.54-.58s3.3-7.06,9.73-1.87Z" transform="translate(0.5 0.5)" style="fill:#fff"/><path d="M57.83,149.85c-2.54-2.36-6.36-2.95-8.93,1.76l-.54-.58s3.3-7.06,9.73-1.87Z" transform="translate(0.5 0.5)" style="fill:#fff"/><path d="M57.85,151.76c-2.36-2.36-5.91-2.95-8.29,1.76l-.5-.58s3.06-7.06,9-1.87Z" transform="translate(0.5 0.5)" style="fill:#fff"/><circle cx="167.62" cy="167.62" r="167.12" style="fill:none;stroke:#1d1d1b;stroke-miterlimit:10;opacity:0.35000000000000003"/></svg>