<svg id="b65aee31-bb57-40ca-8456-ece706fdd118" data-name="Capa 1" xmlns="http://www.w3.org/2000/svg" viewBox="0 0 335.23 335.23"><title>imagen 3</title><path d="M86.23,212.43c-4-18.47-19.3-30.58-37.24-35.87-7.9-2.32-14.32-10.57-14.32-18.89a20,20,0,0,1,33.5-14.73,21,21,0,0,0-2.73-.23A15.12,15.12,0,0,0,50.3,157.79c0,18,36.64,11.76,35.93,54.64Z" transform="translate(0.5 0.5)" style="fill:#2e2754;fill-rule:evenodd"/><path d="M65.92,160.55c1.11-8.37,8.51-15.09,17.24-13.45a14.64,14.64,0,0,1,11.93,14.51,43.75,43.75,0,0,1-.66,5.62,27.1,27.1,0,0,1-13,18.35,25.37,25.37,0,0,0,6.37-12.53,23.81,23.81,0,0,0-.24-9.94,11.54,11.54,0,0,0-9.27-8.6c-4.72-.89-9.24,2.09-12.42,6Z" transform="translate(0.5 0.5)" style="fill:#009fe3;fill-rule:evenodd"/><path d="M64.73,135.58a8.2,8.2,0,1,0-8.2-8.2,8.22,8.22,0,0,0,8.2,8.2Z" transform="translate(0.5 0.5)" style="fill:#2e2754;fill-rule:evenodd"/><path d="M86.21,145.79a6.39,6.39,0,1,0-6.36-6.35,6.42,6.42,0,0,0,6.36,6.35Z" transform="translate(0.5 0.5)" style="fill:#009fe3;fill-rule:evenodd"/><path d="M112.92,158v10.77c0,5.91,3.53,7.82,8.53,7.82s11-1.24,11.68-5.77a7.53,7.53,0,0,1,1.19,3.81c0,4.67-6.77,6.2-12.87,6.2-7.29,0-13.73-3-13.73-11.34V157.33c0-8.39,6.44-11.34,13.73-11.34,6.43,0,12.77,1.81,12.77,6.62a6.82,6.82,0,0,1-1.09,3.39c-.57-4.15-6.58-5.77-11.68-5.77S112.92,152.09,112.92,158Z" transform="translate(0.5 0.5)" style="fill:#2e2754"/><path d="M141.56,172.63c0,2.72,1.34,4.29,5.15,4.29a16.34,16.34,0,0,0,5.15-.81V155.76s5,0,5,2.72v22.21a8.68,8.68,0,0,0-3.71-.86c-2.29,0-4.44,1-7.11,1-4.62,0-9.48-1.57-9.48-7.48V155.76s5,.05,5,2.72Z" transform="translate(0.5 0.5)" style="fill:#2e2754"/><path d="M159.49,146.94h3.57c.57,0,1.38.62,1.38,1.19v3.63h-3.52a1.37,1.37,0,0,1-1.43-1.15Zm0,8.82c.19,0,5,0,5,2.72v22.11s-5,0-5-2.72Z" transform="translate(0.5 0.5)" style="fill:#2e2754"/><path d="M181.93,144.32c.29,0,5,0,5,3.19v33.18a8.62,8.62,0,0,0-3.53-.67c-2.24,0-4.48.81-6.67.81-6.43,0-10.11-2.86-10.11-7.91v-9.53c0-4.91,4.15-7.87,8.92-7.87s6.81,2.24,6.81,2.24a12.71,12.71,0,0,1-.43-3.57Zm0,19.3c0-2.52-2.9-4.29-5.76-4.29-2.62,0-4.53,1.43-4.53,4.77v8.1c0,3.24,1.24,4.82,5.67,4.82a11.38,11.38,0,0,0,4.62-.86Z" transform="translate(0.5 0.5)" style="fill:#2e2754"/><path d="M203.48,163.19c0-2.09-1-3.71-5-3.71-4.25,0-7.53,1.57-7.53,5.24a6.93,6.93,0,0,1-1.58-4.05c0-3.72,4.86-5.15,9.11-5.15,6.53,0,10,2.91,10,7.91v17.21a8.18,8.18,0,0,0-3.43-.67c-2.29,0-4.48.86-7.15.86-4.62,0-9.24-1.81-9.24-7.25C188.66,164.53,201.67,167.34,203.48,163.19Zm.14,4.29c-1,2.86-10,1.15-10,6.1,0,2.1,1.57,3.58,5,3.58a11.23,11.23,0,0,0,5-1.1Z" transform="translate(0.5 0.5)" style="fill:#2e2754"/><path d="M215.82,160.29v20.3s-5,0-5-2.76V155.66a7.32,7.32,0,0,0,3.29.86c2,0,3.91-1,6.62-1,3.34,0,6,1.24,6,4.15a7,7,0,0,1-1.77,4.05c0-2.81-2.33-4.1-5.1-4.1A14.58,14.58,0,0,0,215.82,160.29Z" transform="translate(0.5 0.5)" style="fill:#2e2754"/><path d="M246.47,145.89c6.39,0,12,1.19,12,5.72a9.7,9.7,0,0,1-1.38,4.48v-.28c0-4.58-5.48-5.58-10.63-5.58-4.38,0-7.77,1.43-7.77,5,0,8.34,20.92.52,20.92,15.25,0,6.91-5.62,10.34-13.25,10.34-5.86,0-12.34-1.24-12.34-5.77a8.27,8.27,0,0,1,1.43-4.19c0,4.77,6,5.67,10.91,5.67s7.73-2.24,7.73-5.72c0-9.34-20.93-1.67-20.93-15C233.17,148.23,239.13,145.89,246.47,145.89Z" transform="translate(0.5 0.5)" style="fill:#009fe3"/><path d="M280.74,175.44c0,3.39-4.19,5.39-9.29,5.39-6.63,0-10.63-3-10.63-8v-9.29c0-5,3.48-8,9.91-8s9.72,3,9.72,7.53c0,4-2.52,7.44-9.77,7.44a11.05,11.05,0,0,1-4.86-1v2.62c0,3.1,1.62,4.67,5.63,4.67,4.57,0,7.91-1.86,8-5A6.61,6.61,0,0,1,280.74,175.44Zm-14.92-9.67a18.14,18.14,0,0,0,4.24.67c4,0,5.39-1.24,5.39-3.39s-1.29-3.72-4.81-3.72c-3.82,0-4.82,1.81-4.82,4.91Z" transform="translate(0.5 0.5)" style="fill:#009fe3"/><path d="M287.41,160.29v20.3s-5,0-5-2.76V155.66a7.32,7.32,0,0,0,3.29.86c2.05,0,3.91-1,6.62-1,3.34,0,6,1.24,6,4.15a7,7,0,0,1-1.77,4.05c0-2.81-2.33-4.1-5.1-4.1A14.58,14.58,0,0,0,287.41,160.29Z" transform="translate(0.5 0.5)" style="fill:#009fe3"/><path d="M108.28,189.52a2.53,2.53,0,1,0,0,5,3,3,0,0,0,2-.85l.71.8a4,4,0,0,1-2.78,1.18,3.63,3.63,0,1,1,.05-7.26,3.93,3.93,0,0,1,2.72,1.11l-.7.88A2.8,2.8,0,0,0,108.28,189.52Z" transform="translate(0.5 0.5)" style="fill:#1d1d1b"/><path d="M117.11,190.19v5.46h-1.18v-1.07a2,2,0,0,1-2,1.11,1.89,1.89,0,0,1-2-2.1v-3.4h1.18v3.07a1.2,1.2,0,0,0,1.27,1.32,1.54,1.54,0,0,0,1.5-1.7v-2.69Z" transform="translate(0.5 0.5)" style="fill:#1d1d1b"/><path d="M120.12,188.63a.67.67,0,0,1-.68.7.7.7,0,0,1,0-1.4A.67.67,0,0,1,120.12,188.63Zm-.1,1.56v5.46h-1.17v-5.46Z" transform="translate(0.5 0.5)" style="fill:#1d1d1b"/><path d="M127,188v7.61h-1.17v-.93a2.13,2.13,0,0,1-1.92,1,2.79,2.79,0,0,1,0-5.56,2.17,2.17,0,0,1,1.94,1V188Zm-1.17,4.9a1.66,1.66,0,0,0-1.68-1.79,1.79,1.79,0,0,0,0,3.57A1.66,1.66,0,0,0,125.79,192.94Z" transform="translate(0.5 0.5)" style="fill:#1d1d1b"/><path d="M132,195.65V195a2.18,2.18,0,0,1-1.8.72,1.73,1.73,0,0,1-1.92-1.69c0-1,.75-1.63,2.06-1.64H132v-.17c0-.68-.44-1.09-1.3-1.09a2.86,2.86,0,0,0-1.61.55l-.48-.82a4,4,0,0,1,2.35-.69c1.4,0,2.19.72,2.2,1.92v3.58Zm0-1.92v-.5h-1.47c-.77,0-1.13.2-1.13.73s.4.81,1.05.81C131.31,194.77,132,194.33,132,193.73Z" transform="translate(0.5 0.5)" style="fill:#1d1d1b"/><path d="M143.89,192.25v3.4h-1.18v-3.07a1.21,1.21,0,0,0-1.29-1.33,1.55,1.55,0,0,0-1.5,1.7v2.7h-1.18v-3.07a1.2,1.2,0,0,0-1.28-1.33,1.57,1.57,0,0,0-1.52,1.7v2.7h-1.17v-5.46h1.17v1.06a2,2,0,0,1,2-1.1,1.84,1.84,0,0,1,1.9,1.31,2,2,0,0,1,2.07-1.31A1.89,1.89,0,0,1,143.89,192.25Z" transform="translate(0.5 0.5)" style="fill:#1d1d1b"/><path d="M150.65,192.91a2.85,2.85,0,1,1-2.84-2.76A2.68,2.68,0,0,1,150.65,192.91Zm-4.51,0a1.67,1.67,0,1,0,1.67-1.77A1.64,1.64,0,0,0,146.14,192.93Z" transform="translate(0.5 0.5)" style="fill:#1d1d1b"/><path d="M153.42,191.09c-.46,0-.8.15-.8.54,0,1,2.9.46,2.89,2.44,0,1.12-1,1.62-2.09,1.62a3.42,3.42,0,0,1-2.2-.76l.43-.84a3,3,0,0,0,1.82.68c.5,0,.89-.18.89-.59,0-1.12-2.87-.49-2.86-2.46,0-1.11,1-1.58,2-1.58a3.44,3.44,0,0,1,1.91.56l-.43.87A3.18,3.18,0,0,0,153.42,191.09Z" transform="translate(0.5 0.5)" style="fill:#1d1d1b"/><path d="M165,188v7.61H163.8v-.93a2.13,2.13,0,0,1-1.92,1,2.79,2.79,0,0,1,0-5.56,2.16,2.16,0,0,1,1.94,1V188Zm-1.18,4.9a1.68,1.68,0,1,0-1.67,1.78A1.66,1.66,0,0,0,163.8,192.94Z" transform="translate(0.5 0.5)" style="fill:#1d1d1b"/><path d="M171.58,193.37h-4.13a1.67,1.67,0,0,0,1.69,1.37,2.12,2.12,0,0,0,1.54-.64l.63.67a3,3,0,0,1-2.26.92,2.77,2.77,0,1,1,0-5.54C170.94,190.15,171.72,191.4,171.58,193.37Zm-1-.86A1.4,1.4,0,0,0,169,191.1a1.54,1.54,0,0,0-1.6,1.41Z" transform="translate(0.5 0.5)" style="fill:#1d1d1b"/><path d="M179,195.3a2.58,2.58,0,0,1-1.34.4,1.44,1.44,0,0,1-1.53-1.59v-2.83h-.77v-.88h.77v-1.5h1.17v1.5h1.61v.88h-1.61v2.62c0,.56.21.73.58.73a1.9,1.9,0,0,0,.82-.23Z" transform="translate(0.5 0.5)" style="fill:#1d1d1b"/><path d="M181.33,188.63a.68.68,0,0,1-.69.7.7.7,0,1,1,.69-.7Zm-.1,1.56v5.46h-1.17v-5.46Z" transform="translate(0.5 0.5)" style="fill:#1d1d1b"/><path d="M183.84,195.07a1,1,0,0,1-.18.54l-.59.88h-.6l.39-.89a.61.61,0,0,1-.28-.53.63.63,0,0,1,.64-.66A.62.62,0,0,1,183.84,195.07Z" transform="translate(0.5 0.5)" style="fill:#1d1d1b"/><path d="M190.53,191.19a1.75,1.75,0,0,0,0,3.49,2,2,0,0,0,1.61-.66l.66.66a2.79,2.79,0,0,1-2.32,1,2.77,2.77,0,0,1,0-5.54,2.92,2.92,0,0,1,2.26.89l-.65.76A2.06,2.06,0,0,0,190.53,191.19Z" transform="translate(0.5 0.5)" style="fill:#1d1d1b"/><path d="M199,192.91a2.85,2.85,0,1,1-2.84-2.76A2.68,2.68,0,0,1,199,192.91Zm-4.51,0a1.67,1.67,0,1,0,1.67-1.77A1.65,1.65,0,0,0,194.48,192.93Z" transform="translate(0.5 0.5)" style="fill:#1d1d1b"/><path d="M205.45,192.25v3.4h-1.18v-3.07a1.22,1.22,0,0,0-1.32-1.32,1.54,1.54,0,0,0-1.55,1.49v2.9h-1.17v-5.46h1.17v1.05a2.07,2.07,0,0,1,2-1.09A1.91,1.91,0,0,1,205.45,192.25Z" transform="translate(0.5 0.5)" style="fill:#1d1d1b"/><path d="M213.19,195.3a2.58,2.58,0,0,1-1.34.4,1.44,1.44,0,0,1-1.53-1.59v-2.83h-.77v-.88h.77v-1.5h1.17v1.5h1.61v.88h-1.61v2.62c0,.56.21.73.58.73a1.93,1.93,0,0,0,.82-.23Z" transform="translate(0.5 0.5)" style="fill:#1d1d1b"/><path d="M219.4,192.91a2.85,2.85,0,1,1-2.84-2.76A2.68,2.68,0,0,1,219.4,192.91Zm-4.52,0a1.67,1.67,0,1,0,1.68-1.77A1.65,1.65,0,0,0,214.88,192.93Z" transform="translate(0.5 0.5)" style="fill:#1d1d1b"/><path d="M225.83,188v7.61h-1.18v-.93a2.13,2.13,0,0,1-1.92,1,2.79,2.79,0,0,1,0-5.56,2.16,2.16,0,0,1,1.94,1V188Zm-1.18,4.9a1.66,1.66,0,0,0-1.67-1.79,1.79,1.79,0,0,0,0,3.57A1.66,1.66,0,0,0,224.65,192.94Z" transform="translate(0.5 0.5)" style="fill:#1d1d1b"/><path d="M232.8,192.91a2.85,2.85,0,1,1-2.84-2.76A2.68,2.68,0,0,1,232.8,192.91Zm-4.51,0a1.67,1.67,0,1,0,1.67-1.77A1.65,1.65,0,0,0,228.29,192.93Z" transform="translate(0.5 0.5)" style="fill:#1d1d1b"/><path d="M242.33,192.25v3.4h-1.18v-3.07a1.21,1.21,0,0,0-1.31-1.32,1.53,1.53,0,0,0-1.55,1.49v2.9h-1.18v-5.46h1.18v1.05a2.06,2.06,0,0,1,2-1.09A1.91,1.91,0,0,1,242.33,192.25Z" transform="translate(0.5 0.5)" style="fill:#1d1d1b"/><path d="M248.87,190.19v5.46h-1.18v-1.07a2,2,0,0,1-1.95,1.11,1.89,1.89,0,0,1-2-2.1v-3.4h1.18v3.07a1.2,1.2,0,0,0,1.27,1.32,1.54,1.54,0,0,0,1.5-1.7v-2.69Z" transform="translate(0.5 0.5)" style="fill:#1d1d1b"/><path d="M255.41,193.37h-4.12a1.66,1.66,0,0,0,1.69,1.37,2.12,2.12,0,0,0,1.54-.64l.62.67a3,3,0,0,1-2.25.92,2.77,2.77,0,1,1,0-5.54C254.78,190.15,255.55,191.4,255.41,193.37Zm-1-.86a1.41,1.41,0,0,0-1.52-1.41,1.54,1.54,0,0,0-1.6,1.41Z" transform="translate(0.5 0.5)" style="fill:#1d1d1b"/><path d="M258.18,191.09c-.46,0-.8.15-.8.54,0,1,2.9.46,2.89,2.44,0,1.12-1,1.62-2.09,1.62a3.37,3.37,0,0,1-2.19-.76l.42-.84a3,3,0,0,0,1.82.68c.5,0,.89-.18.89-.59,0-1.12-2.87-.49-2.86-2.46,0-1.11,1-1.58,2-1.58a3.44,3.44,0,0,1,1.91.56l-.43.87A3.18,3.18,0,0,0,258.18,191.09Z" transform="translate(0.5 0.5)" style="fill:#1d1d1b"/><path d="M264.55,195.3a2.58,2.58,0,0,1-1.34.4,1.44,1.44,0,0,1-1.53-1.59v-2.83h-.77v-.88h.77v-1.5h1.17v1.5h1.61v.88h-1.61v2.62c0,.56.21.73.58.73a1.9,1.9,0,0,0,.82-.23Z" transform="translate(0.5 0.5)" style="fill:#1d1d1b"/><path d="M268.7,190.15v1.13a1.65,1.65,0,0,0-1.88,1.52v2.85h-1.18v-5.46h1.18v1.09A2,2,0,0,1,268.7,190.15Z" transform="translate(0.5 0.5)" style="fill:#1d1d1b"/><path d="M274.86,192.91a2.85,2.85,0,1,1-2.84-2.76A2.68,2.68,0,0,1,274.86,192.91Zm-4.51,0a1.67,1.67,0,1,0,1.67-1.77A1.64,1.64,0,0,0,270.35,192.93Z" transform="translate(0.5 0.5)" style="fill:#1d1d1b"/><path d="M281.51,189.56c-.71,0-1.17.26-1.17.75,0,1.57,3.87.72,3.86,3.31,0,1.28-1.12,2.07-2.7,2.07a4.42,4.42,0,0,1-2.94-1.14l.53-1a3.79,3.79,0,0,0,2.43,1c.84,0,1.34-.32,1.34-.87,0-1.6-3.88-.71-3.88-3.26,0-1.23,1.06-2,2.62-2a4.67,4.67,0,0,1,2.51.74l-.5,1.06A4.3,4.3,0,0,0,281.51,189.56Z" transform="translate(0.5 0.5)" style="fill:#1d1d1b"/><path d="M290.75,188.47v1.09h-3.92v1.95h3.51v1.07h-3.51v2h4v1.09h-5.25v-7.18Z" transform="translate(0.5 0.5)" style="fill:#1d1d1b"/><path d="M296.9,195.65l-1.31-2.17h-2v2.16h-1.21v-7.18h2.91c1.84,0,2.89.89,2.89,2.45a2.31,2.31,0,0,1-1.48,2.33l1.61,2.4Zm-1.64-3.25c1.11,0,1.75-.47,1.75-1.45s-.64-1.39-1.75-1.39h-1.7v2.84Z" transform="translate(0.5 0.5)" style="fill:#1d1d1b"/><circle cx="167.62" cy="167.62" r="167.12" style="fill:none;stroke:#1d1d1b;stroke-miterlimit:10;opacity:0.35000000000000003"/></svg>