<svg id="ffdc237d-126f-452a-84a9-f921a42b5adb" data-name="Capa 1" xmlns="http://www.w3.org/2000/svg" xmlns:xlink="http://www.w3.org/1999/xlink" viewBox="0 0 335.23 335.23"><defs><linearGradient id="a0f51ef3-4b4a-4690-917a-77a7e9275637" x1="50.08" y1="206.29" x2="128.31" y2="189.74" gradientUnits="userSpaceOnUse"><stop offset="0" stop-color="#29265b"/><stop offset="1" stop-color="#39a8e0"/></linearGradient><linearGradient id="a56ca099-f4c6-42e4-86f5-7b8c663e687b" x1="76.97" y1="189.32" x2="105.67" y2="189.32" xlink:href="#a0f51ef3-4b4a-4690-917a-77a7e9275637"/><linearGradient id="a17c8c72-e03f-4022-8b3e-9cf1a6e6330b" x1="58.52" y1="215.9" x2="91.66" y2="215.9" xlink:href="#a0f51ef3-4b4a-4690-917a-77a7e9275637"/><linearGradient id="f285a5be-1b04-4132-a8bd-ce6c95cacff0" x1="51.14" y1="147.38" x2="71.57" y2="147.38" xlink:href="#a0f51ef3-4b4a-4690-917a-77a7e9275637"/><linearGradient id="b6113b9e-599a-45d2-a42a-8e4f043804a7" x1="83.31" y1="60.45" x2="108.49" y2="60.45" gradientTransform="translate(-7.35 13.45) rotate(12.55)" xlink:href="#a0f51ef3-4b4a-4690-917a-77a7e9275637"/><linearGradient id="b76eeda8-b66c-4f34-b8c5-54c01e2a47c6" x1="111.52" y1="32.68" x2="136.5" y2="32.68" gradientTransform="translate(-28.68 29.51) rotate(21.51)" xlink:href="#a0f51ef3-4b4a-4690-917a-77a7e9275637"/><linearGradient id="e7ae1b46-25ba-4e10-9230-5a545c2447ee" x1="109.31" y1="22.12" x2="165.25" y2="22.12" gradientTransform="translate(-28.68 29.51) rotate(21.51)" xlink:href="#a0f51ef3-4b4a-4690-917a-77a7e9275637"/></defs><title>imagen 4</title><path d="M51.83,213.32a13.15,13.15,0,0,1,7.23-.06A25.88,25.88,0,0,1,65.92,216a39.82,39.82,0,0,1,6,4.27,57.91,57.91,0,0,1,5.28,5.11l-4,1.53a73.32,73.32,0,0,1,.32-11.51,85,85,0,0,1,2-11.28A71.8,71.8,0,0,1,84.36,183a55.39,55.39,0,0,1,16-16.51,51.93,51.93,0,0,1,21.08-8.05,93,93,0,0,0-9.88,5,67.11,67.11,0,0,0-8.81,6.28,62.83,62.83,0,0,0-13.54,16.3,82.16,82.16,0,0,0-8.07,19.7,101.12,101.12,0,0,0-2.27,10.53q-.45,2.66-.74,5.34c-.2,1.77-.35,3.62-.41,5.3l-.23,6.58-3.8-5a55.47,55.47,0,0,0-9.38-10,27.72,27.72,0,0,0-5.79-3.62,17.55,17.55,0,0,0-3.25-1.11A10.43,10.43,0,0,0,51.83,213.32Z" transform="translate(0.5 0.5)" style="fill:url(#a0f51ef3-4b4a-4690-917a-77a7e9275637)"/><path d="M98.34,128.22a162.7,162.7,0,0,0-7.66,14.91A110.4,110.4,0,0,0,85,158.61a55.48,55.48,0,0,0-2.24,15.82,32.55,32.55,0,0,0,1,7.61A24.17,24.17,0,0,0,85,185.6a22.68,22.68,0,0,0,1.72,3.32,27.07,27.07,0,0,0,4.85,5.75,44.23,44.23,0,0,1,6,6.62,38.32,38.32,0,0,1,4.48,7.85,35.79,35.79,0,0,1,2.39,8.7A40,40,0,0,1,103,235.32,46.16,46.16,0,0,1,95,250.43c.61-1.28,1.15-2.57,1.64-3.88s1-2.61,1.37-3.94a55.11,55.11,0,0,0,1.9-8,42,42,0,0,0-.25-15.89A34.62,34.62,0,0,0,93,204.81a45.23,45.23,0,0,0-5.39-5.69,30.54,30.54,0,0,1-6-7.08,32.23,32.23,0,0,1-4.47-17.61,53.85,53.85,0,0,1,3.47-17.2,85.58,85.58,0,0,1,7.55-15.4A91.35,91.35,0,0,1,98.34,128.22Z" transform="translate(0.5 0.5)" style="fill:url(#a56ca099-f4c6-42e4-86f5-7b8c663e687b)"/><path d="M89.36,267.09a66.52,66.52,0,0,1-4.45-5.21c-.71-.9-1.41-1.8-2.08-2.72l-1-1.38c-.32-.47-.6-1-.91-1.44-1.19-1.94-2.34-3.91-3.43-5.9-.55-1-1.12-2-1.59-3s-.88-2.1-1.28-3.17c-.78-2.15-1.48-4.32-2.17-6.49s-1.17-4.41-1.91-6.54Q70,229.6,69.36,228c-.35-1.08-.72-2.14-1.13-3.2-.75-2.13-1.72-4.2-2.53-6.33s-1.62-4.26-2.35-6.43a34.12,34.12,0,0,1-1-3.28l-.84-3.32c-.61-2.21-1-4.46-1.43-6.71-.22-1.13-.42-2.25-.59-3.39L59.19,192c-.09-1.14-.22-2.28-.27-3.43s-.06-2.29-.06-3.43,0-2.29,0-3.44l.19-3.43a57.15,57.15,0,0,1,2.49-13.52l.49.09c.44,9,1.3,17.83,2.45,26.59l.37,3.29L65.3,198c.27,2.2.5,4.4.89,6.58l2.14,13.2c.16,1.12.44,2.2.69,3.29s.53,2.18.83,3.26.6,2.16.93,3.22.82,2.09,1.26,3.12c.88,2.06,1.9,4.07,2.95,6s2.33,3.85,3.41,5.8c2,4,4.11,7.87,5.91,12a126.81,126.81,0,0,1,5.46,12.37Z" transform="translate(0.5 0.5)" style="fill:url(#a17c8c72-e03f-4022-8b3e-9cf1a6e6330b)"/><path d="M69.59,131c-.44,4.49-3.38,8.62-6.68,11.57-1.56,1.49-3.06,3-4.4,4.56A16.7,16.7,0,0,0,55.45,152a5.31,5.31,0,0,0-.3,2.31,4.51,4.51,0,0,0,.1.53l.2.67a9.2,9.2,0,0,0,.5,1.3,6.61,6.61,0,0,0,3.46,3.6,8.08,8.08,0,0,0,5.47,0,8.89,8.89,0,0,0,2.7-1.35,6,6,0,0,0,2-2.41,4.82,4.82,0,0,1-.32,1.69,7.55,7.55,0,0,1-.86,1.54,9.92,9.92,0,0,1-10,3.62,8.87,8.87,0,0,1-3.56-1.88,10.69,10.69,0,0,1-2.4-3.11,13.11,13.11,0,0,1-.75-1.73c-.11-.3-.21-.57-.3-.89a7.84,7.84,0,0,1-.23-1.07,8.79,8.79,0,0,1,.48-4.15,17.45,17.45,0,0,1,4.06-6.06,41.15,41.15,0,0,1,5.17-4.42c.93-.67,1.76-1.23,2.57-1.89a23.87,23.87,0,0,0,6.1-7.31Z" transform="translate(0.5 0.5)" style="fill:url(#f285a5be-1b04-4132-a8bd-ce6c95cacff0)"/><path d="M114.13,177.6c.08-.43.23-.66.43-.66s.35.13.67.78l6.85,13.95,6.83-14.12c.2-.4.32-.61.55-.61s.38.26.45.78l2.29,15.36c.22,1.58.47,2.31,1.22,2.53a4.9,4.9,0,0,0,1.56.25c.23,0,.4,0,.4.18s-.3.27-.65.27c-.63,0-4.09-.05-5.09-.12-.58-.05-.73-.13-.73-.28s.1-.2.27-.27.23-.38.13-1.08l-1.51-10.92h-.1l-5.47,11.19c-.57,1.18-.7,1.41-.92,1.41s-.48-.5-.88-1.26c-.6-1.15-2.59-5-2.89-5.69-.22-.53-1.73-3.49-2.61-5.37h-.1l-1.3,9.78a10.17,10.17,0,0,0-.08,1.18c0,.48.33.71.76.81a4.76,4.76,0,0,0,1.05.12c.2,0,.38.05.38.18s-.23.27-.61.27c-1,0-2.18-.07-2.63-.07s-1.68.07-2.48.07c-.26,0-.46,0-.46-.27s.15-.18.41-.18a3.46,3.46,0,0,0,.75-.07c.7-.15.9-1.13,1-2Z" transform="translate(0.5 0.5)" style="fill:#235ca8"/><path d="M139,184.57c0-3.81,0-4.51-.05-5.32s-.25-1.25-1.08-1.43a5.26,5.26,0,0,0-1-.07c-.27,0-.42-.05-.42-.23s.17-.22.55-.22c1.33,0,2.91.07,3.66.07.6,0,2.18-.07,3.09-.07.37,0,.55,0,.55.22s-.15.23-.4.23a3.75,3.75,0,0,0-.73.07c-.68.13-.88.55-.93,1.43s0,1.51,0,5.32v3.51c0,3.64.73,5.17,2,6.18a4.68,4.68,0,0,0,3.13,1,5,5,0,0,0,3.47-1.36c1.38-1.38,1.45-3.64,1.45-6.22v-3.14c0-3.81,0-4.51-.05-5.32s-.25-1.25-1.08-1.43a4.84,4.84,0,0,0-.9-.07c-.28,0-.43-.05-.43-.23s.18-.22.53-.22c1.28,0,2.86.07,2.88.07.31,0,1.89-.07,2.87-.07.35,0,.52,0,.52.22s-.15.23-.45.23a3.75,3.75,0,0,0-.73.07c-.67.13-.88.55-.93,1.43s0,1.51,0,5.32v2.69c0,2.78-.27,5.74-2.38,7.55a7.48,7.48,0,0,1-5.22,1.8,8,8,0,0,1-5.57-1.73c-1.28-1.15-2.23-3-2.23-6.65Z" transform="translate(0.5 0.5)" style="fill:#235ca8"/><path d="M162.43,184.57c0-3.81,0-4.51-.05-5.32s-.25-1.25-1.08-1.43a5.26,5.26,0,0,0-1-.07c-.28,0-.43-.05-.43-.23s.18-.22.56-.22c1.32,0,2.91.07,3.56.07s2.18-.07,3.16-.07c.35,0,.53,0,.53.22s-.15.23-.46.23a3.73,3.73,0,0,0-.72.07c-.68.13-.88.55-.93,1.43s-.05,1.51-.05,5.32v4.64c0,1.08.07,2.29.07,3.54a13.49,13.49,0,0,1-.6,4.44,9.59,9.59,0,0,1-4.26,4.74,13.76,13.76,0,0,1-1.26.66,1.08,1.08,0,0,1-.5.15.2.2,0,0,1-.2-.2c0-.13.12-.23.55-.46a5.19,5.19,0,0,0,1.21-1c1.9-1.93,1.88-4.44,1.88-9.36Z" transform="translate(0.5 0.5)" style="fill:#235ca8"/><path d="M173.87,184.57c0-3.81,0-4.51-.05-5.32s-.25-1.25-1.08-1.43a5.26,5.26,0,0,0-1-.07c-.28,0-.43-.05-.43-.23s.18-.22.56-.22l2,0c.65,0,1.23.05,1.58.05.8,0,5.79,0,6.27,0a9.92,9.92,0,0,0,1.08-.15,2.13,2.13,0,0,1,.4-.1c.13,0,.15.1.15.22s-.12.48-.2,1.63c0,.25-.07,1.36-.12,1.66,0,.12-.08.27-.25.27s-.23-.12-.23-.35a2.84,2.84,0,0,0-.15-.9c-.18-.45-.43-.75-1.68-.9-.43,0-3.06-.1-3.57-.1-.12,0-.17.07-.17.25v6.34c0,.18,0,.28.17.28.56,0,3.44,0,4-.05a1.73,1.73,0,0,0,1.2-.38c.18-.2.28-.32.41-.32s.17.05.17.2-.1.55-.2,1.83c0,.5-.1,1.51-.1,1.68s0,.48-.23.48-.22-.1-.22-.23a8.51,8.51,0,0,0-.1-.9c-.13-.5-.48-.88-1.41-1-.47-.05-3-.08-3.56-.08-.13,0-.15.1-.15.26v2c0,.85,0,3.16,0,3.89.05,1.73.45,2.1,3,2.1a6.39,6.39,0,0,0,2.36-.3c.65-.3.95-.82,1.13-1.85.05-.28.1-.38.27-.38s.2.2.2.45a20.69,20.69,0,0,1-.32,2.79c-.18.65-.4.65-1.36.65-1.88,0-3.26-.05-4.34-.08s-1.85-.07-2.61-.07c-.27,0-.82,0-1.43,0s-1.23,0-1.73,0c-.32,0-.5-.07-.5-.25s.1-.2.4-.2a4.18,4.18,0,0,0,.91-.1c.5-.1.62-.65.72-1.38.13-1.05.13-3,.13-5.34Z" transform="translate(0.5 0.5)" style="fill:#235ca8"/><path d="M190.73,184.57c0-3.81,0-4.51,0-5.32s-.25-1.25-1.08-1.43a5.26,5.26,0,0,0-1-.07c-.28,0-.43-.05-.43-.23s.18-.22.56-.22c1.32,0,2.91.07,3.43.07.86,0,2.76-.07,3.54-.07a8.1,8.1,0,0,1,4.62,1.07,4.37,4.37,0,0,1,1.7,3.44c0,1.86-.78,3.56-3.31,5.62,2.23,2.81,4,5,5.44,6.6a5,5,0,0,0,2.82,1.71,3.84,3.84,0,0,0,.7.07c.2,0,.3.08.3.2s-.18.25-.48.25h-2.38a5.16,5.16,0,0,1-2.69-.47c-1.08-.58-2-1.76-3.43-3.69-1-1.38-2.16-3.09-2.49-3.46a.51.51,0,0,0-.45-.18l-2.18-.05c-.13,0-.2.05-.2.2V189c0,2.34,0,4.32.12,5.37.08.73.23,1.28,1,1.38a11.69,11.69,0,0,0,1.23.1c.2,0,.3.08.3.2s-.17.25-.5.25c-1.46,0-3.31-.07-3.69-.07s-2.06.07-3.06.07c-.32,0-.5-.07-.5-.25s.1-.2.4-.2a4,4,0,0,0,.9-.1c.51-.1.63-.65.73-1.38.13-1.05.13-3,.13-5.34Zm3,2c0,.28.05.38.22.46a6.84,6.84,0,0,0,1.91.25,2.49,2.49,0,0,0,1.78-.43,4.43,4.43,0,0,0,1.48-3.76c0-3.57-2.36-4.59-3.84-4.59a5.31,5.31,0,0,0-1.33.1c-.17,0-.22.15-.22.35Z" transform="translate(0.5 0.5)" style="fill:#235ca8"/><path d="M217.82,196c-.4-.17-.47-.3-.47-.85,0-1.38.1-2.89.12-3.29s.1-.65.3-.65.25.23.25.43a5.19,5.19,0,0,0,.23,1.28,3.46,3.46,0,0,0,3.59,2.53,3,3,0,0,0,3.36-2.86c0-1.23-.38-2.38-2.46-4l-1.15-.91c-2.76-2.15-3.72-3.91-3.72-5.94,0-2.76,2.31-4.75,5.8-4.75a12.42,12.42,0,0,1,3.34.43c.22,0,.35.13.35.3,0,.33-.1,1.06-.1,3,0,.56-.08.76-.28.76s-.25-.16-.25-.46a3.08,3.08,0,0,0-.65-1.65,3.19,3.19,0,0,0-2.74-1.23c-1.85,0-3,1.08-3,2.58,0,1.16.57,2,2.66,3.62l.7.52c3,2.29,4.11,4,4.11,6.4a5.06,5.06,0,0,1-2.35,4.37,7.28,7.28,0,0,1-4,1A8.66,8.66,0,0,1,217.82,196Z" transform="translate(0.5 0.5)" style="fill:#235ca8"/><path d="M235.81,189.87c-.12,0-.17,0-.22.2l-1.36,3.43a5,5,0,0,0-.38,1.53c0,.46.23.78,1,.78h.37c.31,0,.38.05.38.2s-.15.25-.42.25c-.81,0-1.89-.07-2.66-.07-.28,0-1.66.07-3,.07-.32,0-.47,0-.47-.25s.1-.2.3-.2a6.53,6.53,0,0,0,.78-.05c1.15-.15,1.63-1,2.13-2.26L238.6,178c.3-.73.45-1,.7-1s.38.23.63.81c.6,1.38,4.61,11.41,6.22,15.23.95,2.25,1.68,2.61,2.21,2.73a5.08,5.08,0,0,0,1,.1c.2,0,.33,0,.33.2s-.23.25-1.16.25-2.73,0-4.74,0c-.45,0-.75,0-.75-.2s.1-.2.35-.22a.41.41,0,0,0,.22-.58l-2-5.17a.25.25,0,0,0-.25-.17Zm5.12-1.26c.13,0,.15-.07.13-.15l-2.26-6.17c0-.1-.05-.23-.13-.23s-.12.13-.15.23l-2.31,6.15c0,.1,0,.17.1.17Z" transform="translate(0.5 0.5)" style="fill:#235ca8"/><path d="M254.78,192.85c.05,2,.38,2.61.88,2.79a4,4,0,0,0,1.3.17c.28,0,.43.05.43.2s-.23.25-.58.25c-1.63,0-2.63-.07-3.11-.07-.23,0-1.4.07-2.71.07-.32,0-.55,0-.55-.25s.15-.2.4-.2a4.44,4.44,0,0,0,1.13-.12c.65-.2.75-.93.78-3.11L253,177.8c0-.5.08-.86.33-.86s.5.33.93.78,4.11,4.34,7.78,8c1.7,1.71,5.09,5.32,5.51,5.72h.13l-.25-11.26c0-1.53-.25-2-.85-2.26a4.12,4.12,0,0,0-1.33-.15c-.3,0-.4-.08-.4-.23s.27-.22.65-.22c1.3,0,2.51.07,3,.07.28,0,1.23-.07,2.46-.07.33,0,.58,0,.58.22s-.15.23-.45.23a3,3,0,0,0-.76.07c-.7.2-.9.73-.92,2.14l-.28,15.83c0,.55-.1.77-.33.77s-.57-.27-.85-.55c-1.58-1.5-4.79-4.79-7.4-7.37s-5.52-5.77-6-6.25h-.08Z" transform="translate(0.5 0.5)" style="fill:#235ca8"/><path d="M279.14,189.87c-.12,0-.17,0-.22.2l-1.36,3.43a5,5,0,0,0-.38,1.53c0,.46.23.78,1,.78h.37c.3,0,.38.05.38.2s-.15.25-.43.25c-.8,0-1.88-.07-2.66-.07-.27,0-1.65.07-3,.07-.32,0-.47,0-.47-.25s.1-.2.3-.2a6.53,6.53,0,0,0,.78-.05c1.15-.15,1.63-1,2.13-2.26l6.3-15.55c.3-.73.45-1,.7-1s.37.23.63.81c.6,1.38,4.61,11.41,6.22,15.23.95,2.25,1.68,2.61,2.21,2.73a5.08,5.08,0,0,0,1.05.1c.2,0,.33,0,.33.2s-.23.25-1.16.25-2.73,0-4.74,0c-.45,0-.75,0-.75-.2s.1-.2.35-.22a.41.41,0,0,0,.22-.58L285,190a.25.25,0,0,0-.25-.17Zm5.12-1.26c.12,0,.15-.07.12-.15l-2.25-6.17c0-.1-.05-.23-.13-.23s-.12.13-.15.23l-2.31,6.15c0,.1,0,.17.1.17Z" transform="translate(0.5 0.5)" style="fill:#235ca8"/><path d="M64.49,88.05a8.85,8.85,0,0,1-4.64,7,2.56,2.56,0,0,0,1.48,2,1.86,1.86,0,0,1,.56,3.07C61.1,101,63,102,63,102a1.24,1.24,0,0,0,.41,1.67c1,.76.76,2.59.67,4.14-.52,9.38,17.46-1,19.51-3.47-4.89,3.55-17.64,9.27-17.65,3,0-3.25-3.51-10.44-.19-14.6C70,87.33,62.09,83.19,70.57,73c-4.36,2.8-8,7.14-6.08,15Z" transform="translate(0.5 0.5)" style="fill-rule:evenodd;fill:url(#b6113b9e-599a-45d2-a42a-8e4f043804a7)"/><path d="M75.09,72.32s-7.94,7.11,3.78,18.11c18,17-10.26,40.37-16.34,43.37,21.66-10.7,23.5-22.11,24.12-27.41,2.26-19.58-21-18.12-11.56-34.07Z" transform="translate(0.5 0.5)" style="fill-rule:evenodd;fill:url(#b76eeda8-b66c-4f34-b8c5-54c01e2a47c6)"/><path d="M72.07,72S83.43,65,94.18,69.53s16.25,17.92,12.35,31.68c-5.69,20.07-2.56,34.52-.57,37.34-3.12-4.41-7.27-17.84-4.17-29.65s9-27.53-6.11-37c-4.6-2.62-8.49-5.19-20.34-1.52Z" transform="translate(0.5 0.5)" style="fill-rule:evenodd;fill:url(#e7ae1b46-25ba-4e10-9230-5a545c2447ee)"/><circle cx="167.62" cy="167.62" r="167.12" style="fill:none;stroke:#1d1d1b;stroke-miterlimit:10;opacity:0.35000000000000003"/></svg>