<svg xmlns="http://www.w3.org/2000/svg" xmlns:xlink="http://www.w3.org/1999/xlink" viewBox="0 0 404 333"><defs><linearGradient id="b749a9ed-504e-4526-8890-2cbbbd53aca7" x1="406.08" y1="113.43" x2="337.92" y2="43.8" gradientUnits="userSpaceOnUse"><stop offset="0" stop-color="#009ad8"/><stop offset="1" stop-color="#00c3ff"/></linearGradient><linearGradient id="bc54f780-1f54-43ec-8e98-a37e1bf2dae2" x1="118.1" y1="115.65" x2="39.01" y2="46.08" xlink:href="#b749a9ed-504e-4526-8890-2cbbbd53aca7"/><linearGradient id="b9c5caee-181b-4398-84ae-07c9d1cd119c" x1="127.29" y1="58.72" x2="248.06" y2="58.72" xlink:href="#b749a9ed-504e-4526-8890-2cbbbd53aca7"/></defs><title>Recurso 1m</title><g id="ae0cc5c6-0ce0-44d4-8021-bcf31cb241b1" data-name="Capa 2"><g id="e551526c-93d4-4d56-9a72-273916308589" data-name="Capa 1"><path d="M279.76,58.58c.13-6.14,2.61-11.93,5.9-17.1s7.77-10,13.72-12.12c13.69-4.94,26.39,3.69,39.05,7.3,6.94,2,11.5-3.27,15.66-7.82s8.22-9.43,12.93-13.6c4.49-4,10.44-8,16.73-8.34s11.44,4.49,14.42,9.53a55,55,0,0,1,3.6,7.7c5.1,19.82,1.28,41.33-9.7,58.75A69.94,69.94,0,0,1,367,106.94c-11.86,6.49-26,7.19-38.94,3.53C315.88,107,305.16,99.85,296.3,91.24S279.48,71.19,279.76,58.58Z" style="fill:url(#b749a9ed-504e-4526-8890-2cbbbd53aca7)"/><ellipse cx="53.38" cy="58.72" rx="53.38" ry="51.72" style="fill:url(#bc54f780-1f54-43ec-8e98-a37e1bf2dae2)"/><ellipse cx="187.67" cy="58.72" rx="53.38" ry="51.72" style="fill:none;stroke-miterlimit:10;stroke-width:14px;stroke:url(#b9c5caee-181b-4398-84ae-07c9d1cd119c)"/><ellipse cx="308.97" cy="213.76" rx="69.52" ry="67.35" style="fill:#009ad8"/><path d="M75.35,312.3a41.85,41.85,0,0,1-11.8-1.67,44.39,44.39,0,0,1-10.75-4.75h.13a40.64,40.64,0,0,1-6.37-4.76c-1.85-1.71-3.14-3-3.84-3.73l13.8-12.34a17.8,17.8,0,0,0,3,2.77,37.72,37.72,0,0,0,10.28,5.59,16.66,16.66,0,0,0,5.57,1,19.76,19.76,0,0,0,4.51-.52,14.2,14.2,0,0,0,4.12-1.6,9.29,9.29,0,0,0,3-2.9,8,8,0,0,0,1.19-4.49,4.4,4.4,0,0,0-.73-2.25A10.41,10.41,0,0,0,85,280a30,30,0,0,0-5-3,84.66,84.66,0,0,0-8-3.4,101.86,101.86,0,0,1-10.35-4.44,35.83,35.83,0,0,1-8.29-5.59A22.94,22.94,0,0,1,48,256.26,22.24,22.24,0,0,1,46,246.75a25.28,25.28,0,0,1,2.13-10.34,24.27,24.27,0,0,1,6-8.36,28.33,28.33,0,0,1,9.42-5.53,35.66,35.66,0,0,1,12.14-2,35.22,35.22,0,0,1,7.63.9,60.14,60.14,0,0,1,7.89,2.32A51.86,51.86,0,0,1,98.5,227a34.22,34.22,0,0,1,5.64,3.79L92.73,244.7c-1.68-1.12-3.4-2.14-5.17-3.09a41.46,41.46,0,0,0-5.18-2.18,17.68,17.68,0,0,0-6-1c-3.71,0-6.61.7-8.68,2.12a6.93,6.93,0,0,0-3.12,6.1,5.27,5.27,0,0,0,1.12,3.28,11.49,11.49,0,0,0,3.06,2.7,27.83,27.83,0,0,0,4.44,2.25q2.52,1,5.31,1.93a99.7,99.7,0,0,1,13.4,6,37.94,37.94,0,0,1,8.75,6.43,20.2,20.2,0,0,1,4.71,7.33,25.29,25.29,0,0,1,1.4,8.54,24.5,24.5,0,0,1-2.39,10.67,26.76,26.76,0,0,1-6.57,8.68,31.26,31.26,0,0,1-10,5.78A36,36,0,0,1,75.35,312.3Z" style="fill:#00387d"/><path d="M140.92,239.3v18.12H171v18H140.92v18.13h41.26V311.4h-59.7v-90h59.7V239.3Z" style="fill:#00387d"/><path d="M277.1,311.4H254.55l-25.21-34.31H218.2V311.4H199.89v-90h37.55a28,28,0,0,1,11,2.19,29.21,29.21,0,0,1,15.32,14.78,25.32,25.32,0,0,1,2.32,10.79,26.79,26.79,0,0,1-4.51,15.24,27.12,27.12,0,0,1-11.81,10Zm-43.11-52q7,0,10.34-3a9.35,9.35,0,0,0,3.32-7.14,9,9,0,0,0-3.32-7Q241,239.3,234,239.3H218.2v20.05Z" style="fill:#00387d"/><path d="M276.34,233.71h23v5.39H270.83l-.06-2.64c-.44-20.71,8.45-29.5,15.6-36.56,5.09-5,9.11-9,9-16.22-.08-4.48-2.57-9.27-9.36-9.27s-9.36,5-9.36,9.23h-5.57C271.07,175,277.21,169,286,169s14.78,6,14.93,14.59c.15,9.46-5.06,14.62-10.58,20.07C283.93,210,276.7,217.17,276.34,233.71Z" style="fill:#fff;stroke:#fff;stroke-miterlimit:10;stroke-width:4px"/><path d="M350.75,217.78c-.37,14.87-7.74,23.75-19.72,23.75-17.38,0-19.58-14.44-19.73-25.31l5.57-.07c.23,17.57,6.94,20,14.16,20,12.37,0,14-12.93,14.16-18.49.2-8.27-2.58-18-14.25-18.35-5.61-.17-9.61.57-12.13,2.63h-4.39l0-30.83H344v5.39H320v19a34,34,0,0,1,10.77-1.32C342.85,194.52,351.1,203.85,350.75,217.78Z" style="fill:#fff;stroke:#fff;stroke-miterlimit:10;stroke-width:4px"/><path d="M278.92,257.91l-1.26,3.68h-1.61l4.11-11.71H282l4.12,11.71h-1.67l-1.29-3.68Zm4-1.18-1.18-3.37c-.27-.77-.45-1.46-.63-2.14h0c-.18.69-.37,1.41-.61,2.12l-1.18,3.39Z" style="fill:#fff;stroke:#fff;stroke-miterlimit:10;stroke-width:0.5px"/><path d="M296.9,261.59V249.88h1.7l3.87,5.93a31.51,31.51,0,0,1,2.17,3.8l0,0c-.14-1.56-.18-3-.18-4.81v-4.9H306v11.71h-1.58l-3.83-5.94a35.28,35.28,0,0,1-2.26-3.91l-.06,0c.09,1.47.13,2.88.13,4.83v5Zm2.4-12.42c0-1.06.43-1.77,1.22-1.77a2.15,2.15,0,0,1,1.06.35,2,2,0,0,0,.86.31c.27,0,.43-.12.48-.68h.83c0,1.1-.38,1.69-1.2,1.69a2.52,2.52,0,0,1-1.1-.33,2,2,0,0,0-.84-.33c-.29,0-.43.29-.47.76Z" style="fill:#fff;stroke:#fff;stroke-miterlimit:10;stroke-width:0.5px"/><path d="M328,255.61c0,4-2.53,6.17-5.62,6.17s-5.43-2.4-5.43-5.94c0-3.72,2.39-6.15,5.61-6.15S328,252.14,328,255.61Zm-9.38.2c0,2.5,1.4,4.74,3.85,4.74s3.88-2.21,3.88-4.87c0-2.32-1.26-4.76-3.86-4.76S318.61,253.23,318.61,255.81Z" style="fill:#fff;stroke:#fff;stroke-miterlimit:10;stroke-width:0.5px"/><path d="M338.76,259.75a5.63,5.63,0,0,0,2.8.76c1.59,0,2.52-.81,2.52-2s-.64-1.71-2.27-2.32c-2-.68-3.19-1.67-3.19-3.32,0-1.82,1.56-3.18,3.9-3.18a5.74,5.74,0,0,1,2.68.57l-.43,1.24a5,5,0,0,0-2.3-.56c-1.65,0-2.28,1-2.28,1.76,0,1.09.74,1.63,2.41,2.25,2,.77,3.08,1.72,3.08,3.44s-1.38,3.37-4.23,3.37a6.44,6.44,0,0,1-3.08-.74Z" style="fill:#fff;stroke:#fff;stroke-miterlimit:10;stroke-width:0.5px"/><path d="M51.74,329.26h-3.1V332h3.45v.84H47.61v-7.71h4.3V326H48.64v2.44h3.1Z" style="fill:#00387d"/><path d="M56,332.88v-7.71h1.12l2.55,3.9a22.49,22.49,0,0,1,1.43,2.5h0c-.09-1-.11-2-.11-3.17v-3.22h1v7.71h-1L58.37,329a23,23,0,0,1-1.49-2.58h0c.06,1,.09,1.9.09,3.18v3.3Z" style="fill:#00387d"/><path d="M67.78,326H65.35v-.84h5.9V326H68.81v6.87h-1Z" style="fill:#00387d"/><path d="M75.7,325.17v7.71h-1v-7.71Z" style="fill:#00387d"/><path d="M80,325.27a15.32,15.32,0,0,1,2.18-.16,4.67,4.67,0,0,1,3.23,1,3.52,3.52,0,0,1,1.12,2.77,4,4,0,0,1-1.15,3A5,5,0,0,1,81.89,333c-.73,0-1.34,0-1.86-.09Zm1,6.82a6,6,0,0,0,1,.06c2.2,0,3.39-1.19,3.39-3.28,0-1.81-1-3-3.22-3a6.61,6.61,0,0,0-1.2.1Z" style="fill:#00387d"/><path d="M91.55,330.45l-.83,2.43H89.66l2.7-7.71H93.6l2.72,7.71h-1.1l-.85-2.43Zm2.61-.77-.78-2.22a14.23,14.23,0,0,1-.41-1.41h0c-.12.46-.25.93-.4,1.39l-.78,2.24Z" style="fill:#00387d"/><path d="M100,325.27a15.47,15.47,0,0,1,2.19-.16,4.66,4.66,0,0,1,3.22,1,3.49,3.49,0,0,1,1.12,2.77,4,4,0,0,1-1.14,3,5,5,0,0,1-3.52,1.11c-.73,0-1.35,0-1.87-.09Zm1,6.82a6.19,6.19,0,0,0,1,.06c2.2,0,3.39-1.19,3.39-3.28,0-1.81-1-3-3.22-3a6.65,6.65,0,0,0-1.21.1Z" style="fill:#00387d"/><path d="M115.46,325.26a12.35,12.35,0,0,1,2-.15,3.38,3.38,0,0,1,2.24.64,2.07,2.07,0,0,1,.69,1.61,2.24,2.24,0,0,1-.61,1.65,3.36,3.36,0,0,1-2.43.85,3.52,3.52,0,0,1-.83-.07v3.09h-1Zm1,3.72a3.4,3.4,0,0,0,.85.08c1.24,0,2-.59,2-1.65s-.75-1.51-1.88-1.51a4.22,4.22,0,0,0-1,.08Z" style="fill:#00387d"/><path d="M124.28,325.27a11.29,11.29,0,0,1,2-.16,3.33,3.33,0,0,1,2.3.63,1.86,1.86,0,0,1,.63,1.46,2,2,0,0,1-1.5,2v0a1.92,1.92,0,0,1,1.17,1.55,12.64,12.64,0,0,0,.61,2.12H128.4a9.5,9.5,0,0,1-.53-1.84c-.24-1.07-.66-1.47-1.59-1.5h-1v3.34h-1Zm1,3.51h1c1.1,0,1.79-.58,1.79-1.46s-.74-1.43-1.83-1.44a4.1,4.1,0,0,0-1,.09Z" style="fill:#00387d"/><path d="M140,328.94c0,2.66-1.67,4.06-3.7,4.06a3.58,3.58,0,0,1-3.58-3.91c0-2.45,1.57-4,3.7-4S140,326.66,140,328.94Zm-6.18.13c0,1.65.92,3.12,2.54,3.12s2.55-1.45,2.55-3.2c0-1.53-.83-3.14-2.54-3.14S133.83,327.38,133.83,329.07Z" style="fill:#00387d"/><path d="M150.58,329.49c-.06-1.07-.13-2.37-.12-3.33h0c-.27.91-.6,1.87-1,2.93l-1.4,3.74h-.78L146,329.16c-.38-1.09-.69-2.08-.92-3h0c0,1-.09,2.26-.16,3.41l-.21,3.31h-1l.56-7.71h1.31l1.36,3.73c.33,1,.6,1.79.8,2.59h0c.2-.77.49-1.62.84-2.59l1.42-3.73h1.31l.5,7.71h-1Z" style="fill:#00387d"/><path d="M162.7,328.94c0,2.66-1.66,4.06-3.69,4.06a3.58,3.58,0,0,1-3.58-3.91c0-2.45,1.57-4,3.7-4S162.7,326.66,162.7,328.94Zm-6.17.13c0,1.65.92,3.12,2.54,3.12s2.55-1.45,2.55-3.2c0-1.53-.83-3.14-2.54-3.14S156.53,327.38,156.53,329.07Z" style="fill:#00387d"/><path d="M167.79,326h-2.42v-.84h5.89V326h-2.43v6.87h-1Z" style="fill:#00387d"/><path d="M181.17,328.94c0,2.66-1.67,4.06-3.7,4.06a3.58,3.58,0,0,1-3.58-3.91c0-2.45,1.57-4,3.7-4S181.17,326.66,181.17,328.94Zm-6.18.13c0,1.65.92,3.12,2.54,3.12s2.55-1.45,2.55-3.2c0-1.53-.83-3.14-2.54-3.14S175,327.38,175,329.07Z" style="fill:#00387d"/><path d="M185,325.27a11.41,11.41,0,0,1,2-.16,3.37,3.37,0,0,1,2.3.63,1.89,1.89,0,0,1,.63,1.46,2,2,0,0,1-1.5,2v0a1.9,1.9,0,0,1,1.16,1.55,11.45,11.45,0,0,0,.62,2.12h-1.06a10,10,0,0,1-.54-1.84c-.23-1.07-.66-1.47-1.59-1.5h-1v3.34h-1Zm1,3.51h1.05c1.1,0,1.8-.58,1.8-1.46s-.75-1.43-1.83-1.44a4.2,4.2,0,0,0-1,.09Z" style="fill:#00387d"/><path d="M195.27,330.45l-.83,2.43h-1.06l2.7-7.71h1.24l2.72,7.71h-1.1l-.85-2.43Zm2.61-.77-.78-2.22a14.23,14.23,0,0,1-.41-1.41h0c-.12.46-.25.93-.4,1.39l-.78,2.24Z" style="fill:#00387d"/><path d="M208.78,325.27a15.47,15.47,0,0,1,2.19-.16,4.64,4.64,0,0,1,3.22,1,3.49,3.49,0,0,1,1.12,2.77,4,4,0,0,1-1.14,3,5,5,0,0,1-3.52,1.11c-.73,0-1.35,0-1.87-.09Zm1,6.82a6.19,6.19,0,0,0,1,.06c2.2,0,3.39-1.19,3.39-3.28,0-1.81-1.05-3-3.22-3a6.65,6.65,0,0,0-1.21.1Z" style="fill:#00387d"/><path d="M223.3,329.26h-3.09V332h3.45v.84h-4.48v-7.71h4.3V326h-3.27v2.44h3.09Z" style="fill:#00387d"/><path d="M232.43,331.67a3.76,3.76,0,0,0,1.84.5c1,0,1.66-.54,1.66-1.32s-.42-1.13-1.5-1.53c-1.3-.45-2.1-1.1-2.1-2.18s1-2.1,2.58-2.1a3.8,3.8,0,0,1,1.76.38l-.29.81a3.22,3.22,0,0,0-1.51-.36c-1.09,0-1.5.63-1.5,1.15,0,.72.48,1.08,1.58,1.49,1.35.5,2,1.13,2,2.26s-.91,2.22-2.78,2.22a4.13,4.13,0,0,1-2-.49Z" style="fill:#00387d"/><path d="M242.21,330.45l-.82,2.43h-1.07l2.71-7.71h1.24l2.71,7.71h-1.1l-.85-2.43Zm2.61-.77-.78-2.22c-.17-.51-.29-1-.41-1.41h0c-.12.46-.25.93-.41,1.39l-.78,2.24Z" style="fill:#00387d"/><path d="M250.69,325.17h1V332h3.41v.84h-4.43Z" style="fill:#00387d"/><path d="M259.4,325.17v4.56c0,1.73.79,2.46,1.85,2.46s1.94-.75,1.94-2.46v-4.56h1v4.49c0,2.37-1.29,3.34-3,3.34s-2.86-.9-2.86-3.29v-4.54Z" style="fill:#00387d"/><path d="M268.55,325.27a15.32,15.32,0,0,1,2.18-.16,4.62,4.62,0,0,1,3.22,1,3.5,3.5,0,0,1,1.13,2.77,4,4,0,0,1-1.15,3,5,5,0,0,1-3.52,1.11c-.73,0-1.34,0-1.86-.09Zm1,6.82a6.19,6.19,0,0,0,1,.06c2.2,0,3.39-1.19,3.39-3.28,0-1.81-1.05-3-3.22-3a6.74,6.74,0,0,0-1.21.1Z" style="fill:#00387d"/><path d="M61.3,199.11V211H58.91V203.4l-4.38,4.21-4.36-4.21V211H47.76v-11.9h1.33l5.44,5.23L60,199.11Z" style="fill:#00387d"/><path d="M79.28,211.12a5.11,5.11,0,0,1-1.91-.34,4.48,4.48,0,0,1-1.49-.95,4.27,4.27,0,0,1-1-1.45,4.84,4.84,0,0,1-.35-1.85v-7.3H77v7a2.83,2.83,0,0,0,.19,1.07,2.39,2.39,0,0,0,.51.8,2.23,2.23,0,0,0,.74.51,2.19,2.19,0,0,0,1.74,0,2.29,2.29,0,0,0,.73-.51,2.26,2.26,0,0,0,.52-.8,3,3,0,0,0,.19-1.07v-7H84v7.3a4.84,4.84,0,0,1-.35,1.85,4.15,4.15,0,0,1-1,1.45,4.58,4.58,0,0,1-1.49.95A5.15,5.15,0,0,1,79.28,211.12Z" style="fill:#00387d"/><path d="M105.27,201.57h-3.33V211H99.53v-9.44H96.16v-2.34h9.11Z" style="fill:#00387d"/><path d="M122.12,211.12a5.15,5.15,0,0,1-1.91-.34,4.43,4.43,0,0,1-1.48-.95,4.15,4.15,0,0,1-1-1.45,4.84,4.84,0,0,1-.35-1.85v-7.3h2.4v7a2.83,2.83,0,0,0,.19,1.07,2.39,2.39,0,0,0,.51.8,2.33,2.33,0,0,0,.74.51,2.19,2.19,0,0,0,1.74,0,2.33,2.33,0,0,0,.74-.51,2.39,2.39,0,0,0,.51-.8,2.83,2.83,0,0,0,.19-1.07v-7h2.41v7.3a4.84,4.84,0,0,1-.34,1.85,4.18,4.18,0,0,1-1,1.45,4.48,4.48,0,0,1-1.49.95A5.11,5.11,0,0,1,122.12,211.12Z" style="fill:#00387d"/><path d="M144.89,199.11l5.47,11.9H147.7l-1-2.16h-4.64c-.15.34-.31.7-.49,1.09s-.34.74-.48,1.07h-2.64l5.4-11.9Zm.74,7.4-1.25-2.72-1.25,2.72Z" style="fill:#00387d"/><path d="M169.43,211h-7.31V199.23h2.41v9.44h4.9Z" style="fill:#00387d"/></g></g></svg>